<svg xmlns="http://www.w3.org/2000/svg" viewBox="0 0 58 58"><path fill="#d1d4d1" d="M3 52.475h5v3H3zm47 0h5v3h-5z"/><circle cx="45" cy="33.475" r="13" fill="#38454f"/><path d="M15.95 12.475H4a2 2 0 1 1 0-4l12.11 1.863c.512.079.89.519.89 1.038v.05a1.05 1.05 0 0 1-1.05 1.049z" fill="#546a79"/><path d="M8 45.475a5.97 5.97 0 0 1-2-.349v4.349h4v-4.349a5.97 5.97 0 0 1-2 .349zm0-12a5.97 5.97 0 0 1 2 .349V12.475H6v21.349a5.97 5.97 0 0 1 2-.349zm37 13c-.682 0-1.346-.068-2-.169v3.169h4v-3.169c-.654.101-1.318.169-2 .169z" fill="#d1d4d1"/><circle cx="45" cy="33.475" r="3" fill="#fff" stroke="#546a79" stroke-width="2" stroke-miterlimit="10"/><path d="M13.902 40.526a5.865 5.865 0 0 1-.2.809c-.013.04-.029.078-.043.117a6.01 6.01 0 0 1-.305.719c-.015.03-.028.061-.044.09-.131.249-.28.485-.444.712l-.076.101c-.347.461-.758.87-1.222 1.214l-.066.049a6.027 6.027 0 0 1-.752.464l-.023.011a5.965 5.965 0 0 1-.847.356l32.795-9.82A2.968 2.968 0 0 1 42 33.475H8a6 6 0 0 1 6 6c0 .298-.029.588-.071.874-.008.059-.016.119-.027.177z" fill="none" stroke="#546a79" stroke-width="2" stroke-linecap="round" stroke-linejoin="round" stroke-miterlimit="10"/><path d="M45 20.475c.682 0 1.346.068 2 .169v-4.169h-4v4.169a13.056 13.056 0 0 1 2-.169z" fill="#d1d4d1"/><path fill="none" stroke="#ecf0f1" stroke-width="2" stroke-miterlimit="10" d="M45 16.475v-5.929l6-6h4"/><path fill="#38454f" d="M55 2.546h2l1 1v2l-1 1h-2l-1-1v-2z"/><path fill="none" stroke="#38454f" stroke-width="2" stroke-miterlimit="10" d="M47.243 3.232L43 7.475"/><circle cx="8" cy="39.475" r="6" fill="#38454f" stroke="#546a79" stroke-width="2" stroke-miterlimit="10"/><path fill="#556080" d="M0 49.475h58v3H0z"/></svg>