<svg xmlns="http://www.w3.org/2000/svg" viewBox="0 0 58 58"><path d="M9 33H.778A.778.778 0 0 1 0 32.222v-6.445C0 25.348.348 25 .778 25H9v8zm8-8h24v8H17z" fill="#bdc3c7"/><g fill="#ecf0f1"><circle cx="23" cy="26" r="1"/><circle cx="27" cy="26" r="1"/><circle cx="25" cy="28" r="1"/><circle cx="29" cy="28" r="1"/><circle cx="31" cy="26" r="1"/><circle cx="35" cy="26" r="1"/><circle cx="23" cy="30" r="1"/><circle cx="27" cy="30" r="1"/><circle cx="31" cy="30" r="1"/><circle cx="35" cy="30" r="1"/><circle cx="33" cy="28" r="1"/><circle cx="25" cy="32" r="1"/><circle cx="29" cy="32" r="1"/><circle cx="33" cy="32" r="1"/></g><path d="M3 32a1 1 0 0 0-1 1v2a1 1 0 1 0 2 0v-2a1 1 0 0 0-1-1zm3 0a1 1 0 0 0-1 1v2a1 1 0 1 0 2 0v-2a1 1 0 0 0-1-1zM3 22a1 1 0 0 0-1 1v2a1 1 0 1 0 2 0v-2a1 1 0 0 0-1-1zm3 0a1 1 0 0 0-1 1v2a1 1 0 1 0 2 0v-2a1 1 0 0 0-1-1zm-4 5h2v4H2zm3 0h2v4H5z" fill="#ecf0f1"/><path fill="#546a79" d="M9 17h4v24H9z"/><path fill="#38454f" d="M13 14h4v30h-4z"/><path d="M49 25h8.222c.43 0 .778.348.778.778v6.445a.777.777 0 0 1-.778.777H49v-8z" fill="#bdc3c7"/><path d="M55 22a1 1 0 0 0-1 1v2a1 1 0 1 0 2 0v-2a1 1 0 0 0-1-1zm-3 0a1 1 0 0 0-1 1v2a1 1 0 1 0 2 0v-2a1 1 0 0 0-1-1zm3 10a1 1 0 0 0-1 1v2a1 1 0 1 0 2 0v-2a1 1 0 0 0-1-1zm-3 0a1 1 0 0 0-1 1v2a1 1 0 1 0 2 0v-2a1 1 0 0 0-1-1zm2-5h2v4h-2zm-3 0h2v4h-2z" fill="#ecf0f1"/><path fill="#546a79" d="M45 17h4v24h-4z"/><path fill="#38454f" d="M41 14h4v30h-4z"/></svg>