<svg xmlns="http://www.w3.org/2000/svg" viewBox="0 0 449.893 449.893" width="512" height="512"><g fill="#FFF"><path d="M281.537 225.631l-6.964 118.437a7.5 7.5 0 0 0 14.974.881l6.965-118.437a7.5 7.5 0 0 0-7.047-7.928c-4.124-.237-7.684 2.912-7.928 7.047z"/><path d="M134.982 20.499c.214 0 .43-.009.648-.028l33.065-2.83.511 5.977-33.065 2.83a7.5 7.5 0 1 0 1.279 14.945l33.065-2.83.511 5.977-33.065 2.83a7.5 7.5 0 1 0 1.279 14.945l33.065-2.83.511 5.977-33.065 2.83A7.5 7.5 0 1 0 141 83.237l33.065-2.83.511 5.977-33.065 2.83a7.5 7.5 0 1 0 1.279 14.945l33.065-2.83.512 5.977-33.065 2.83a7.5 7.5 0 1 0 1.279 14.945l33.065-2.829 5.672 66.288h-16.403a7.504 7.504 0 0 0-7.488 7.94l7.96 135.359a7.496 7.496 0 0 0 7.927 7.047 7.5 7.5 0 0 0 7.047-7.928l-7.493-127.418h134.084l-9.647 164.074a7.5 7.5 0 0 0 14.973.881l10.115-172.014a7.5 7.5 0 0 0-7.488-7.94h-6.782l3.545-41.439 33.063 2.829a7.5 7.5 0 0 0 1.279-14.945l-33.064-2.829.511-5.977 33.063 2.829a7.5 7.5 0 0 0 1.279-14.945l-33.064-2.829.511-5.977 33.064 2.829a7.5 7.5 0 0 0 1.279-14.945l-33.064-2.83.511-5.977 33.064 2.829a7.5 7.5 0 0 0 1.279-14.945l-33.065-2.83.511-5.977 33.065 2.83a7.5 7.5 0 0 0 1.279-14.945l-33.065-2.83.511-5.977 33.065 2.83a7.5 7.5 0 0 0 1.279-14.945l-64.258-5.497c-4.127-.349-7.759 2.706-8.112 6.833l-13.423 156.832h-48.899L206.721 6.861a7.498 7.498 0 0 0-8.112-6.833l-64.258 5.498a7.5 7.5 0 0 0 .631 14.973zm163.92 19.964l8.774.751-12.604 147.329h-8.845l12.675-148.08zm-106.487-24.85l14.804 172.929h-8.845L183.641 16.364l8.774-.751zM389.27 405.054l-266.087-72.097a7.503 7.503 0 0 0-9.394 6.235l-2.721 20.136-52.581-7.106a7.503 7.503 0 0 0-8.437 6.428l-6.208 45.939a7.502 7.502 0 0 0 6.428 8.437l52.581 7.106-2.721 20.136a7.5 7.5 0 0 0 7.402 8.504l275.68 1.121h.093c11.374 0 21.086-8.48 22.611-19.761 1.527-11.313-5.629-22.094-16.646-25.078zm-329.56-5.889l4.2-31.074 45.149 6.102-4.2 31.074-45.149-6.102zm331.34 28.958c-.522 3.865-3.85 6.771-7.746 6.771h-.032l-267.133-1.086 11.371-84.137 257.839 69.862c3.773 1.021 6.225 4.715 5.701 8.59z"/></g></svg>