<svg xmlns="http://www.w3.org/2000/svg" viewBox="0 0 417.921 417.921" width="512" height="512"><path d="M375.573 172.595h-94.908v-7.013h57.825l.031.002.031-.002h37.022a6.5 6.5 0 1 0 0-13h-28.151l14.931-46.669a81.634 81.634 0 0 0 3.66-26.491C364.866 35.429 328.118-.193 284.07 0l-1.054.005c-17.821.078-34.245 9.443-43.936 25.05-6.436 10.365-17.55 16.552-29.731 16.552s-23.296-6.188-29.732-16.552C169.927 9.448 153.502.084 135.679.005L134.629 0h-.369C90.387 0 53.827 35.553 52.684 79.422a81.684 81.684 0 0 0 3.674 26.537l14.917 46.623H42.348a6.5 6.5 0 1 0 0 13h94.792v7.013H42.348a6.5 6.5 0 1 0 0 13h39.488l3.509 10.968c.023 35.458 7.548 89.387 24.163 125.251l37.25 80.404c3.207 9.32 11.734 15.611 21.348 15.7l.215.001a22.5 22.5 0 0 0 15.945-6.563 22.501 22.501 0 0 0 6.711-16.097 6.51 6.51 0 0 0-.249-1.782c-7.371-25.876-22.143-98.804-2.249-125.156 4.956-6.564 11.782-9.756 20.867-9.756 8.862 0 15.544 3.127 20.427 9.561 19.852 26.156 5.439 99.052-1.788 124.934a6.51 6.51 0 0 0-.24 1.75c0 11.756 9.322 22.088 20.781 23.032.638.053 1.271.079 1.9.078 9.638 0 18.22-6.052 21.396-15.262l37.426-80.902c16.576-35.833 24.081-89.722 24.101-125.194l3.508-10.967h38.713c3.59 0 6.5-2.91 6.5-6.5s-2.907-6.5-6.497-6.5zm-290.65-20.012l-16.17-50.539c-2.239-7.179-3.273-14.676-3.075-22.283.964-36.98 31.906-66.95 68.892-66.76l1.053.005c13.317.058 25.634 7.127 32.949 18.907 8.824 14.211 24.067 22.695 40.776 22.695s31.952-8.484 40.776-22.695c7.313-11.781 19.631-18.849 32.945-18.907l1.057-.005.31-.001c36.884 0 67.62 29.885 68.581 66.761.198 7.607-.836 15.104-3.06 22.237l-16.184 50.584h-53.11v-47.498a6.5 6.5 0 0 0-6.5-6.5h-45.695a6.5 6.5 0 0 0-6.5 6.5v3.506H195.41l-.021-3.546a6.5 6.5 0 0 0-6.5-6.46h-45.248a6.5 6.5 0 0 0-6.5 6.5v47.498H84.923zm143.545 64.003h-33.019v-94.995h26.508v72.477a6.5 6.5 0 1 0 13 0v-78.764c.002-.071.011-.141.011-.213v-3.506h32.695v115.008h-32.695v-3.506a6.5 6.5 0 0 0-6.5-6.501zm-78.327-105.001h32.287l.021 3.546v111.462H150.14V111.585zm-13 74.01v15.97c-19.808-4.197-34.242-8.959-40.072-11.021l-1.583-4.948h41.655zm183.519 7.977a6.97 6.97 0 0 0-.31 2.08c.119 34.01-6.996 86.271-22.898 120.647l-37.575 81.225a6.373 6.373 0 0 0-.282.721 9.633 9.633 0 0 1-10 6.643c-4.473-.368-8.424-4.627-8.815-9.316 2.985-11.029 25.981-100.204-.645-135.296-7.404-9.759-17.762-14.708-30.786-14.708-13.258 0-23.771 5.023-31.247 14.929-26.667 35.336-3.209 124.48-.154 135.546a9.582 9.582 0 0 1-2.831 6.081 9.593 9.593 0 0 1-6.798 2.797h-.092c-4.091-.038-7.889-2.964-9.238-7.116a6.43 6.43 0 0 0-.284-.724l-37.401-80.73c-14.57-31.45-21.779-77.846-22.822-111.591 8.185 2.669 21.571 6.598 38.658 10.085v18.249a6.5 6.5 0 0 0 6.5 6.5h45.309a6.5 6.5 0 0 0 6.5-6.5v-3.506h26.519v3.506a6.5 6.5 0 0 0 6.5 6.5h45.695a6.5 6.5 0 0 0 6.5-6.5v-18.149a393.09 393.09 0 0 0 6.859-1.446 6.5 6.5 0 0 0 4.944-7.749 6.494 6.494 0 0 0-7.749-4.944c-1.345.297-2.701.579-4.055.863v-16.072h42.547l-2.549 7.975z" fill="#FFF"/></svg>