<svg xmlns="http://www.w3.org/2000/svg" viewBox="0 0 59.539 59.539" width="512" height="512"><path d="M59.222 5.573a.99.99 0 0 0-.991-.238L53.895 1l-.707-.707a.999.999 0 1 0-1.414 1.414l-.707.707a1 1 0 0 0-1.414 1.414l-.707.707a.999.999 0 1 0-1.414 1.414l-.707.707a1 1 0 1 0-1.414 1.414l-.707.707a.999.999 0 1 0-1.414 1.414l-.708.709a.999.999 0 1 0-1.414 1.414l.707.707 4.243 4.243-4.609 4.609a2.274 2.274 0 0 0-1.304-.871l-4.943-1.141a3.229 3.229 0 0 0-3.021.867L1.387 51.58a4.67 4.67 0 0 0 0 6.595 4.65 4.65 0 0 0 3.297 1.364 4.647 4.647 0 0 0 3.297-1.364L38.397 27.76c.052-.035.11-.057.156-.103l9.686-9.686 6.364-6.363h.001v-.001l4.242-4.242.001-.001.375-.375c.39-.392.39-1.025 0-1.416zm-2.498 1.084l-.707.707-3.536-3.536.707-.707 3.536 3.536zm-5.657-1.415l3.536 3.536-.707.707-3.537-3.535.708-.708zm1.414 5.658l-.707.707-3.536-3.536.707-.707 3.536 3.536zm-5.657-1.415l3.536 3.536-.707.707-3.536-3.536.707-.707zm-2.828 2.829l.707-.707 3.536 3.535-.708.708-3.535-3.536zm-10.342 9.827a1.237 1.237 0 0 1 1.157-.331l4.942 1.141a.273.273 0 0 1 .212.201.277.277 0 0 1-.073.284l-22.59 22.591-2.354-5.179 18.706-18.707zM13.417 49.912l-2.354-5.179 2.376-2.376 2.354 5.179-2.376 2.376zm-3.886 3.886l-2.354-5.179 2.375-2.375 2.354 5.179-2.375 2.375zm-2.963 2.963a2.667 2.667 0 0 1-3.767 0 2.668 2.668 0 0 1 0-3.767l2.866-2.866 2.354 5.179-1.453 1.454z" fill="#FFF"/></svg>