<svg xmlns="http://www.w3.org/2000/svg" viewBox="0 0 390.762 390.762"><path d="M384.425 149.124a6 6 0 0 0-5.866-4.741H70.514a6 6 0 0 0-5.866 4.741 277.945 277.945 0 0 0-2.579 13.751c-8.9 1.16-17.295 3.926-25.007 8.275C17.68 182.124 4.919 201.48 1.13 225.652c-3.518 22.449 1.239 46.646 13.396 68.134 17.681 31.25 48.795 51.711 79.819 52.727 9.2 15.328 19.924 29.072 31.836 40.66a6.004 6.004 0 0 0 4.184 1.699h188.344c1.563 0 3.064-.61 4.184-1.699 20.631-20.071 37.729-46.578 49.444-76.655 12.054-30.946 18.426-65.85 18.426-100.936-.001-20.532-2.133-40.873-6.338-60.458zM72.37 298.378c-8.995-5.755-17.065-14.3-22.791-24.422-7.703-13.611-10.776-28.55-8.653-42.069 1.84-11.775 7.513-20.893 15.989-25.682.473-.269.962-.506 1.45-.747-.019 1.374-.054 2.747-.054 4.123 0 30.571 4.841 61.001 14.059 88.797zm-47.4-10.501c-10.829-19.142-15.085-40.581-11.984-60.366 3.21-20.479 13.86-36.786 29.979-45.913 5.399-3.045 11.223-5.146 17.375-6.301a291.232 291.232 0 0 0-1.51 17.083 39.558 39.558 0 0 0-7.834 3.387c-11.721 6.622-19.508 18.792-21.926 34.264-2.541 16.179 1.034 33.878 10.065 49.835 9.339 16.51 23.558 29.092 39.327 34.929a240.488 240.488 0 0 0 8.816 19.046c-24.381-3.622-48.1-20.854-62.308-45.964zm291.276 88.995H132.827C93.64 337.627 70.311 275.31 70.311 209.582c0-18.033 1.714-35.905 5.097-53.198h78.365v58.496h-22.499a6 6 0 0 0-6 6v71.997a6 6 0 0 0 6 6h56.997a6 6 0 0 0 6-6V220.88a6 6 0 0 0-6-6h-22.499v-58.496h207.892c3.383 17.293 5.097 35.165 5.097 53.198.001 65.728-23.328 128.045-62.515 167.29zM182.272 226.88v59.997h-44.997V226.88h44.997zm-13.685-104.995a6 6 0 0 0 12 0c0-8.135 1.839-11.967 3.969-16.404 2.415-5.03 5.151-10.731 5.151-21.596s-2.736-16.566-5.151-21.596c-2.129-4.437-3.969-8.269-3.969-16.404 0-8.133 1.839-11.964 3.969-16.4 2.415-5.029 5.151-10.73 5.151-21.594a6 6 0 0 0-12 0c0 8.133-1.839 11.965-3.969 16.401-2.415 5.029-5.151 10.73-5.151 21.594 0 10.865 2.736 16.566 5.15 21.596 2.13 4.437 3.969 8.269 3.969 16.404s-1.839 11.967-3.969 16.404c-2.414 5.029-5.15 10.73-5.15 21.595zm45.39 0a6 6 0 0 0 12 0c0-8.135 1.839-11.967 3.969-16.404 2.415-5.03 5.151-10.731 5.151-21.596s-2.736-16.566-5.151-21.596c-2.129-4.437-3.969-8.269-3.969-16.404 0-8.133 1.839-11.964 3.969-16.4 2.415-5.029 5.151-10.73 5.151-21.594a6 6 0 0 0-12 0c0 8.133-1.839 11.965-3.969 16.401-2.415 5.029-5.151 10.73-5.151 21.594 0 10.865 2.736 16.566 5.15 21.596 2.13 4.437 3.969 8.269 3.969 16.404s-1.839 11.967-3.969 16.404c-2.414 5.029-5.15 10.73-5.15 21.595zm45.39 0a6 6 0 0 0 12 0c0-8.135 1.839-11.967 3.969-16.404 2.414-5.03 5.15-10.731 5.15-21.596s-2.736-16.566-5.15-21.596c-2.13-4.437-3.969-8.269-3.969-16.404 0-8.133 1.839-11.964 3.969-16.4 2.415-5.029 5.151-10.73 5.151-21.594a6 6 0 0 0-12 0c0 8.133-1.839 11.965-3.969 16.401-2.415 5.029-5.151 10.73-5.151 21.594 0 10.865 2.736 16.566 5.151 21.596 2.129 4.437 3.969 8.269 3.969 16.404s-1.839 11.967-3.969 16.404c-2.415 5.029-5.151 10.73-5.151 21.595z"/></svg>