<svg xmlns="http://www.w3.org/2000/svg" viewBox="0 0 33 33" width="512" height="512"><g fill="#FFF"><path d="M8.822 29.588C3.958 29.588 0 25.631 0 20.766s3.958-8.821 8.822-8.821c4.86 0 14.571 3.813 14.571 8.821s-9.711 8.822-14.571 8.822zm0-16.643C4.509 12.945 1 16.454 1 20.766s3.509 7.821 7.822 7.821c4.469 0 13.571-3.62 13.571-7.821s-9.102-7.821-13.571-7.821z"/><path d="M29.701 26.297a3.304 3.304 0 0 1-3.297-3.177h-4.003a.5.5 0 0 1 0-1h4.539a.502.502 0 0 1 .496.567c-.021.145-.034.226-.034.311a2.301 2.301 0 0 0 2.299 2.299A2.301 2.301 0 0 0 32 22.998c0-.723-.337-1.39-.925-1.832a.498.498 0 0 1 0-.798A2.283 2.283 0 0 0 32 18.536c0-1.269-1.031-2.3-2.299-2.3a2.301 2.301 0 0 0-2.299 2.3c0 .085.013.168.025.25a.56.56 0 0 1-.113.426c-.095.11-.229.201-.374.201h-4.539a.5.5 0 0 1 0-1h4.003a3.304 3.304 0 0 1 3.297-3.177 3.303 3.303 0 0 1 3.299 3.3 3.25 3.25 0 0 1-.879 2.23c.564.605.879 1.392.879 2.232a3.303 3.303 0 0 1-3.299 3.299zM3.526 19.4a.5.5 0 0 1-.481-.639c.724-2.505 2.629-3.091 2.71-3.114a.5.5 0 0 1 .286.958c-.067.021-1.471.483-2.034 2.434a.503.503 0 0 1-.481.361zm11.063-9.485a.498.498 0 0 1-.377-.172 2.604 2.604 0 0 1 0-3.407 1.6 1.6 0 0 0 0-2.094.5.5 0 1 1 .754-.656 2.603 2.603 0 0 1 0 3.406 1.602 1.602 0 0 0 0 2.095.5.5 0 0 1-.377.828zm-4.52 0a.498.498 0 0 1-.377-.172 2.604 2.604 0 0 1 0-3.407 1.6 1.6 0 0 0 0-2.094.5.5 0 1 1 .754-.656 2.603 2.603 0 0 1 0 3.406 1.602 1.602 0 0 0 0 2.095.5.5 0 0 1-.377.828zm-4.52 0a.498.498 0 0 1-.377-.172 2.604 2.604 0 0 1 0-3.407 1.6 1.6 0 0 0 0-2.094.5.5 0 1 1 .754-.656 2.603 2.603 0 0 1 0 3.406 1.602 1.602 0 0 0 0 2.095.5.5 0 0 1-.377.828z"/></g></svg>