<svg xmlns="http://www.w3.org/2000/svg" viewBox="0 0 463 463" width="512" height="512"><path d="M367.5 232a63.39 63.39 0 0 0-16.5 2.177V231.5c0-12.958-10.542-23.5-23.5-23.5h-272C42.542 208 32 218.542 32 231.5v112c0 32.59 15.237 64.305 40 83.741V439.5c0 12.958 10.542 23.5 23.5 23.5h192c12.958 0 23.5-10.542 23.5-23.5v-12.259c17.495-13.731 30.226-33.594 36.197-55.563A63.08 63.08 0 0 0 367.5 375c35.014 0 63.5-28.486 63.5-63.5v-16c0-35.014-28.486-63.5-63.5-63.5zM351 295.5c0-9.098 7.402-16.5 16.5-16.5s16.5 7.402 16.5 16.5v16c0 9.098-7.402 16.5-16.5 16.5s-16.5-7.402-16.5-16.5v-16zM287.5 448h-192c-4.687 0-8.5-3.813-8.5-8.5V431h209v8.5c0 4.687-3.813 8.5-8.5 8.5zM336 343.5c0 28.378-13.351 55.925-34.987 72.5H81.987C60.351 399.424 47 371.878 47 343.5v-112c0-4.687 3.813-8.5 8.5-8.5h272c4.687 0 8.5 3.813 8.5 8.5v112zm80-32c0 26.743-21.757 48.5-48.5 48.5a48.098 48.098 0 0 1-17.35-3.21c.555-4.395.85-8.833.85-13.29v-5.181A31.31 31.31 0 0 0 367.5 343c17.369 0 31.5-14.131 31.5-31.5v-16c0-17.369-14.131-31.5-31.5-31.5a31.31 31.31 0 0 0-16.5 4.681v-18.792A48.14 48.14 0 0 1 367.5 247c26.743 0 48.5 21.757 48.5 48.5v16zM186.434 148.65C178.221 156.175 168 165.54 168 183.5c0 4.142 3.357 7.5 7.5 7.5s7.5-3.358 7.5-7.5c0-11.36 5.987-16.845 13.566-23.79 8.213-7.525 18.434-16.89 18.434-34.85 0-17.969-10.22-27.339-18.432-34.869C188.987 83.042 183 77.551 183 66.18c0-11.372 5.988-16.862 13.568-23.813C204.78 34.839 215 25.469 215 7.5c0-4.142-3.357-7.5-7.5-7.5S200 3.358 200 7.5c0 11.371-5.987 16.861-13.568 23.812C178.22 38.841 168 48.211 168 66.18s10.22 27.339 18.432 34.868c7.58 6.951 13.568 12.441 13.568 23.813 0 11.359-5.987 16.845-13.566 23.789zm48 0C226.221 156.175 216 165.54 216 183.5c0 4.142 3.357 7.5 7.5 7.5s7.5-3.358 7.5-7.5c0-11.36 5.987-16.845 13.566-23.79 8.213-7.524 18.434-16.89 18.434-34.85 0-17.969-10.22-27.339-18.432-34.869C236.987 83.042 231 77.551 231 66.18c0-4.142-3.357-7.5-7.5-7.5s-7.5 3.358-7.5 7.5c0 17.969 10.22 27.339 18.432 34.868 7.58 6.951 13.568 12.441 13.568 23.813 0 11.359-5.987 16.845-13.566 23.789zm-96 0C130.221 156.175 120 165.54 120 183.5a7.5 7.5 0 0 0 7.5 7.5 7.5 7.5 0 0 0 7.5-7.5c0-11.36 5.987-16.845 13.566-23.79 8.213-7.524 18.434-16.89 18.434-34.85 0-17.969-10.22-27.339-18.432-34.869C140.987 83.042 135 77.551 135 66.18c0-4.142-3.357-7.5-7.5-7.5s-7.5 3.358-7.5 7.5c0 17.969 10.22 27.339 18.432 34.868 7.58 6.951 13.568 12.441 13.568 23.813 0 11.359-5.987 16.845-13.566 23.789z" fill="#FFF"/></svg>