<svg xmlns="http://www.w3.org/2000/svg" viewBox="0 0 462.832 462.832" width="512" height="512"><path d="M344.285 151.987c2.376-7.487 2.842-14.881 1.373-22.141-3.616-17.865-16.314-28.527-33.059-36.16a7.45 7.45 0 0 0-.905-.403c-8.629-3.846-18.287-6.924-28.313-9.782a39.338 39.338 0 0 0 1.926-12.168c0-15.363-8.822-28.696-21.661-35.225C276.17 17.306 290.655 15 296.956 15c9.185 0 14.96 1.966 18.301 3.739 2.599 1.379 5.748 1.157 8.091-.623 4.361-3.315 3.799-10.016-1.037-12.589C316.931 2.663 308.755 0 296.956 0c-14.379 0-27.865 6.616-39 19.132-2.578 2.898-5.946 7.169-9.337 12.813a39.662 39.662 0 0 0-2.812-.111c-15.373 0-28.714 8.833-35.238 21.686a33.192 33.192 0 0 1-5.869-9.141 7.497 7.497 0 0 0-10.563-3.586c-45.225 25.37-50.601 64.419-50.843 79.767-.314.127-.642.252-.943.38-17.027 7.297-26.847 21.184-28.396 40.158-.576 7.052.135 13.531.975 18.205-15.692 5.879-25.506 17.714-26.81 32.924-1.407 16.419 7.638 32.219 22.395 40.012a23.573 23.573 0 0 0-.21 3.094c0 12.958 10.542 23.5 23.5 23.5h.304a20.248 20.248 0 0 1 4.995 13.299c0 47.487 36.684 86.563 83.201 90.388v24.812c0 22.332-18.168 40.5-40.5 40.5a7.5 7.5 0 0 0 0 15h96a7.5 7.5 0 0 0 0-15c-22.332 0-40.5-18.168-40.5-40.5V382.52c46.517-3.826 83.2-42.901 83.2-90.388 0-4.916 1.799-9.634 4.995-13.299h.305c12.958 0 23.5-10.542 23.5-23.5 0-2.06-.269-4.057-.769-5.962 5.31-3.863 25.17-19.872 26.271-43.916.846-18.437-9.427-36.423-30.522-53.468zM245.807 46.834c13.509 0 24.5 10.991 24.5 24.5s-10.991 24.5-24.5 24.5-24.5-10.991-24.5-24.5 10.99-24.5 24.5-24.5zm-91.701 245.299c0-4.611-.915-9.12-2.62-13.299h30.821v16.5c0 22.511 4.442 43.792 12.507 59.922a81 81 0 0 0 2.996 5.461c-25.79-12.08-43.704-38.273-43.704-68.584zm85.811 155.701h-20.22a55.857 55.857 0 0 0 10.11-12.692 55.83 55.83 0 0 0 10.11 12.692zm-10.11-80c-7.584 0-15.448-7.029-21.576-19.286-7.044-14.089-10.924-32.987-10.924-53.214v-16.5h65v16.5c0 42.725-17.128 72.5-32.5 72.5zm75.7-75.701c0 30.311-17.914 56.503-43.704 68.584a81 81 0 0 0 2.996-5.461c8.065-16.131 12.507-37.412 12.507-59.922v-16.5h30.82a35.22 35.22 0 0 0-2.619 13.299zm20.3-28.299h-192c-4.687 0-8.5-3.813-8.5-8.5s3.813-8.5 8.5-8.5h192c4.687 0 8.5 3.813 8.5 8.5 0 4.687-3.813 8.5-8.5 8.5zm34.022-59.149c-.713 16.61-15.164 28.803-19.566 32.142a23.373 23.373 0 0 0-14.456-4.993h-74.516c14.185-7.071 31.16-16.431 46.825-27.421a7.5 7.5 0 1 0-8.615-12.279c-30.413 21.337-67.214 36.751-74.476 39.701h-81.218c-6.494 0-12.381 2.649-16.639 6.922-9.166-5.071-14.965-15.155-14.101-25.248.959-11.193 9.783-19.268 24.21-22.153 12.223-2.445 44.545-9.25 80.6-19.617a7.5 7.5 0 0 0-4.146-14.416c-31.278 8.994-59.696 15.264-74.259 18.278-1.783-10.718-2.265-31.85 18.788-40.872 8.569-3.672 26.101-6.865 44.662-10.245l6.236-1.138a7.5 7.5 0 0 0 6.023-8.73c-.748-4.074-4.659-6.773-8.73-6.023l-6.216 1.135c-11.833 2.155-22.71 4.139-31.74 6.281 1.174-14.786 7.834-39.389 36.474-58.183 3.118 4.733 7.02 8.818 11.377 11.923-.021.527-.04 1.055-.04 1.588 0 21.78 17.72 39.5 39.5 39.5 12.008 0 22.774-5.393 30.025-13.876 10.22 2.848 19.831 5.739 28.105 9.256.66 1.465.503 2.567.192 3.542-1.547 4.849-11.341 18.229-68.727 37.703a7.5 7.5 0 1 0 4.821 14.204c30.372-10.307 71.521-26.428 78.197-47.347l.022-.078c6.478 4.846 10.941 10.811 12.515 18.585 2.292 11.324-2.929 23.906-15.516 37.396a7.5 7.5 0 0 0 .367 10.6 7.474 7.474 0 0 0 5.115 2.017 7.48 7.48 0 0 0 5.485-2.383c4.515-4.838 8.272-9.66 11.268-14.455 15.242 13.055 22.695 26.056 22.154 38.684z" fill="#FFF"/></svg>