<svg xmlns="http://www.w3.org/2000/svg" viewBox="0 0 495 495"><path fill="#cd2a00" d="M247.5 0v40H455v415H247.5v40H495V0z"/><path fill="#ff5023" d="M40 455V40h207.5V0H0v495h247.5v-40z"/><path d="M247.1 405l113.803-31.891L386.103 90H108.897L134.1 373.109 247.1 405zm87.418-257.114l-3.15 34.456H198.677l2.948 35.631h126.794l-9.853 107.1-70.675 19.483v.199h-.791l-71.267-19.682-4.329-54.736h34.453l2.559 27.563 38.584 10.43 38.784-10.43 4.341-44.883h-120.49l-9.252-105.131h174.035z" fill="#ff5023"/></svg>