<svg xmlns="http://www.w3.org/2000/svg" viewBox="0 0 56.967 56.967"><path d="M39 34.483v7H17v-7H.052a.053.053 0 0 0-.052.053v19.563a2.384 2.384 0 0 0 2.384 2.384h51.231a2.384 2.384 0 0 0 2.384-2.384V34.536a.052.052 0 0 0-.052-.052H39z" fill="#1081e0"/><path d="M41 27.483v-7.706s-14.063-2.669-21.924 9.706c0 0-.411-2.787.681-6.602a19.063 19.063 0 0 1 1.349-3.398H10L.019 34.436a.034.034 0 0 0 .032.047H17v7h22v-7h16.949a.034.034 0 0 0 .032-.047L47.567 21.83 41 27.483z" fill="#13649b"/><path d="M41 8.483v-8l15.944 13.175c.03.027.03.073 0 .099L41 27.483v-7.706s-14.063-2.669-21.924 9.706c0 0-.411-2.787.681-6.602C22.18 14.416 30.052 8.806 38.852 8.489A31.26 31.26 0 0 1 41 8.483z" fill="#a1c8ec"/></svg>