<svg xmlns="http://www.w3.org/2000/svg" viewBox="0 0 459.994 459.994" width="512" height="512"><g fill="#FFF"><path d="M440.745 444.994H389.77v-15.368c0-35.193-9.385-62.355-27.893-80.733-23.599-23.43-53.265-23.467-54.407-23.474h-37.572v-22.734c0-.396-.04-.783-.1-1.163 24.058-9.94 39.262-26.521 48.52-40.896a122.05 122.05 0 0 0 4.361-7.337c24.104-1.264 43.328-21.271 43.328-45.685a45.602 45.602 0 0 0-7.198-24.641c.81-6.426.491-12.246.14-15.684-.576-5.655-3.135-10.4-7.397-13.723-3.045-2.373-6.612-3.737-10.054-4.497V74.918c0-24.675-10.2-41.168-31.185-50.424-8.51-3.752-6.269-11.918-5.402-14.27a7.5 7.5 0 0 0-12.329-7.99c-11.882 12.053-24.46 11.732-47.278 11.157-15.901-.402-35.695-.903-61.753 2.825-35.786 5.119-51.659 27.232-58.673 44.881-7.027 17.684-6.599 34.197-6.501 36.481v49.109c0 .797.127 1.564.357 2.285-3.568.741-7.3 2.116-10.468 4.584-4.263 3.322-6.822 8.067-7.399 13.723-.757 7.429-1.374 25.978 9.245 37.734 3.679 4.074 8.326 6.804 13.668 8.085v1.567c0 .36.026.72.078 1.076.131.907 3.387 22.474 17.82 44.884 9.258 14.375 24.462 30.955 48.519 40.896-.059.38-.099.767-.099 1.163v22.734h-37.517c-1.244.024-30.87.051-54.46 23.474-18.509 18.377-27.894 45.54-27.894 80.733v15.368H19.249a7.5 7.5 0 0 0 0 15h421.497a7.5 7.5 0 1 0-.001-14.999zM307.524 340.42h.01c.593 0 24.707.187 43.774 19.118 15.569 15.458 23.463 39.039 23.463 70.088v15.368H255.878a7.498 7.498 0 0 0-.239-1.617l-14.398-54.612 10.318 3.365a7.496 7.496 0 0 0 7.994-2.22l7.82-9.03 13.591-8.307a7.5 7.5 0 0 0 3.477-7.689l-4.27-24.463h27.353zm-113.513 11.03c4.929 10.478 14.299 18.464 25.671 21.523l-10.277 3.351-5.323-6.147a7.51 7.51 0 0 0-1.758-1.489l-10.231-6.254 1.918-10.984zm72.611-1.414l2.165 12.399-10.231 6.254a7.49 7.49 0 0 0-1.758 1.489l-5.323 6.147-10.69-3.486c11.663-3.294 21.171-11.78 25.837-22.803zm-26.069 94.958h-20.16l10.08-38.231 10.08 38.231zm9.948-319.147a7.498 7.498 0 0 0-5.021 4.868c-.157.48-2.016 6.317-2.579 14.007-10.503-2.356-19.641-1.546-26.205-.112-.573-7.633-2.414-13.417-2.57-13.895a7.497 7.497 0 0 0-5.022-4.868c-12.567-3.679-25.496-5.544-38.427-5.544-5.576 0-10.707.35-15.317.886a7.497 7.497 0 0 0 1.735-4.789v-16.378c6.93-3.35 27.424-10.765 73.021-10.765s66.092 7.415 73.022 10.765V116.4c0 1.794.645 3.518 1.799 4.869a132.632 132.632 0 0 0-16.008-.966c-12.932 0-25.861 1.866-38.428 5.544zm-79.825 9.456c10.119 0 20.243 1.286 30.154 3.826 1.31 6.281 2.195 16.628-2.266 23.098-3.019 4.378-8.296 6.708-16.134 7.122-5.92.313-10.188.453-13.837.453-19.207 0-26.085-1.461-27.837-30.54 5.757-1.646 16.279-3.959 29.92-3.959zm88.098 3.827a121.452 121.452 0 0 1 30.155-3.826c13.531 0 24.123 2.329 29.92 3.974-1.754 29.063-8.633 30.524-27.836 30.524-3.65 0-7.918-.14-13.838-.453-7.837-.414-13.114-2.744-16.134-7.122-4.463-6.472-3.575-16.826-2.267-23.097zm92.233 68.474c0 13.43-8.658 24.869-20.683 29.049 4.439-11.784 5.733-20.346 5.815-20.91.051-.357.077-.716.077-1.077v-1.606c5.268-1.299 9.85-4.017 13.489-8.046.364-.403.712-.816 1.051-1.234.157 1.262.251 2.538.251 3.824zm-6.981-38.803c.892 8.739-.072 20.201-5.453 26.158a11.873 11.873 0 0 1-2.357 2.008v-33.595c2.324.268 4.651.866 6.131 2.029.716.563 1.476 1.407 1.679 3.4zM185.674 31.065c24.813-3.55 43.91-3.065 59.249-2.678 17.997.457 32.299.818 45.185-5.784 1.779 6.164 6.027 12.033 14.152 15.616 15.587 6.875 22.237 17.85 22.237 36.699v46.109l-8.359-7.867V95.718c0-2.25-1.01-4.38-2.751-5.805-1.959-1.602-20.992-15.655-85.271-15.655-64.278 0-83.311 14.053-85.27 15.655a7.503 7.503 0 0 0-2.751 5.805v17.441l-8.719 8.204V97.401a7.82 7.82 0 0 0-.011-.405c-.122-2.369-2.371-58.11 52.309-65.931zM121.243 194.96c-5.38-5.957-6.345-17.418-5.454-26.158.203-1.993.963-2.837 1.68-3.401 1.518-1.193 3.926-1.794 6.31-2.051v33.73a11.867 11.867 0 0 1-2.536-2.12zm33.344 58.006c-11.735-18.011-15.267-35.842-15.808-38.914v-36.978c6.651 5.543 16.243 7.728 29.813 7.728 3.924 0 8.436-.146 14.629-.473 12.651-.669 21.983-5.262 27.735-13.65 2.19-3.194 3.629-6.686 4.544-10.23 3.624-1.249 10.604-2.975 19.43-1.907v28.504c0 1.654-1.346 3-3 3h-3.868c-1.654 0-3-1.346-3-3a7.5 7.5 0 0 0-15 0c0 9.925 8.075 18 18 18h3.868c9.665 0 17.554-7.664 17.961-17.231.025-.253.039-.509.039-.769v-14.643c5.814 7.292 14.698 11.306 26.452 11.927 6.195.327 10.681.439 14.63.473 13.83 0 23.539-2.26 30.202-8.043v37.292c-.396 2.247-2.355 12.177-7.837 24.303h-50.981c-.947 0-1.85.183-2.685.503a10.986 10.986 0 0 0-8.099-3.559h-8.279c-6.093 0-11.031 4.939-11.031 11.031s4.938 11.031 11.031 11.031h8.279c3.555 0 6.708-1.688 8.726-4.299a7.47 7.47 0 0 0 2.058.293h42.75c-16.808 25.549-41.854 39.608-74.454 41.781H229.3c-32.767-2.185-57.905-16.372-74.713-42.17zm73.982 57.153c.162.01.323.016.485.016h1.886c.162 0 .324-.005.485-.016 8.5-.551 16.299-1.832 23.473-3.668v26.469c0 .046.006.091.007.138a7.494 7.494 0 0 0-.157 1.531c0 13.647-11.103 24.75-24.751 24.75-13.647 0-24.75-11.103-24.75-24.75 0-.525-.055-1.037-.157-1.531 0-.046.007-.091.007-.138v-26.469c7.173 1.836 14.973 3.118 23.472 3.668zM85.225 429.626c0-88.177 64.527-89.206 67.301-89.206h28.184l-4.27 24.463a7.5 7.5 0 0 0 3.477 7.689l13.591 8.307 7.82 9.03a7.502 7.502 0 0 0 7.994 2.22l10.39-3.388-14.405 54.636a7.499 7.499 0 0 0-.239 1.616H85.225v-15.367z"/><circle cx="176.76" cy="152.317" r="8.951"/><circle cx="283.235" cy="152.317" r="8.951"/><path d="M207.92 241.833c-8.847-3.04-13.396-6.915-13.57-7.066a7.5 7.5 0 0 0-10.063 11.125c.663.605 6.824 6.027 18.758 10.128a7.475 7.475 0 0 0 2.438.409 7.503 7.503 0 0 0 2.437-14.596z"/></g></svg>