<svg xmlns="http://www.w3.org/2000/svg" viewBox="0 0 481.773 481.773" width="512" height="512"><g fill="#FFF"><path d="M205.617 303.835c-11.408 0-20.688 9.28-20.688 20.688s9.281 20.689 20.688 20.689 20.688-9.281 20.688-20.689c.001-11.408-9.28-20.688-20.688-20.688zm0 32.876c-6.721 0-12.188-5.468-12.188-12.189 0-6.72 5.468-12.188 12.188-12.188 6.721 0 12.188 5.467 12.188 12.188.001 6.721-5.467 12.189-12.188 12.189z"/><path d="M466.523 52.375h-10.25v-19.75c0-8.96-7.289-16.25-16.25-16.25h-236c-8.96 0-16.25 7.289-16.25 16.25v30.388H28.906C12.967 63.013 0 75.981 0 91.921V345.79c0 15.939 12.967 28.907 28.906 28.907h123.195l-14.304 47.502h-1.147c-12.366 0-22.426 10.061-22.426 22.429v16.521a4.25 4.25 0 0 0 4.25 4.25h174.288a4.25 4.25 0 0 0 4.25-4.25v-16.521c0-12.367-10.061-22.429-22.429-22.429h-1.145l-14.304-47.502H382.33c15.939 0 28.906-12.968 28.906-28.907V126.875h55.286c8.409 0 15.25-6.841 15.25-15.25v-44c.001-8.409-6.84-15.25-15.249-15.25zm-270.25-19.75c0-4.273 3.477-7.75 7.75-7.75h236c4.273 0 7.75 3.476 7.75 7.75v1.109H331.81a4.25 4.25 0 0 0 0 8.5h115.963v38.391c0 4.273-3.477 7.75-7.75 7.75h-236c-4.273 0-7.75-3.477-7.75-7.75v-48zm56.882 158.481a4.254 4.254 0 0 0-4.499.518 7.658 7.658 0 0 1-4.84 1.706h-1.499a7.701 7.701 0 0 1-5.49-2.282 4.25 4.25 0 0 0-7.261 2.999v3.533c0 4.273-3.477 7.75-7.75 7.75h-1.499c-4.273 0-7.75-3.477-7.75-7.75V96.875h71.999v79.602c0 4.273-3.477 7.75-7.75 7.75a4.25 4.25 0 0 0-4.25 4.25v24.104c0 4.273-3.477 7.75-7.75 7.75h-1.499c-4.273 0-7.75-3.477-7.75-7.75v-17.643a4.25 4.25 0 0 0-2.412-3.832zM28.906 71.513h158.867v9.112c0 1.288.167 2.535.451 3.737H9.968c3.011-7.518 10.358-12.849 18.938-12.849zm259.607 373.115v12.271H122.725v-12.271c0-7.68 6.247-13.929 13.926-13.929h137.934c7.679 0 13.928 6.249 13.928 13.929zm-23.951-22.429H146.674l14.303-47.502h89.28l14.305 47.502zm117.769-56.002H28.906c-11.252 0-20.406-9.155-20.406-20.407v-24.928h62.461a4.25 4.25 0 0 0 0-8.5H8.5v-17.656h394.237v29.514H297.313a4.25 4.25 0 0 0 0 8.5h105.425v13.07c-.001 11.252-9.155 20.407-20.407 20.407zm90.942-254.572a6.758 6.758 0 0 1-6.75 6.75h-133.5c-8.409 0-15.25 6.841-15.25 15.25v16.745c-7.408 1.51-13 8.075-13 15.922v86.667c0 8.96 7.29 16.25 16.25 16.25h2c8.96 0 16.25-7.29 16.25-16.25v-86.667c0-7.848-5.592-14.413-13-15.922v-16.745a6.758 6.758 0 0 1 6.75-6.75h69.714v159.331H8.5V154.229h135.82a4.25 4.25 0 0 0 0-8.5H8.5V92.862h184.866c2.856 2.491 6.579 4.013 10.658 4.013h.044v100.706c0 8.96 7.289 16.25 16.25 16.25h1.499c7.731 0 14.218-5.427 15.853-12.671 1.489.442 3.051.671 4.648.671h1.499c1.096 0 2.185-.113 3.251-.332v11.082c0 8.96 7.289 16.25 16.25 16.25h1.499c8.96 0 16.25-7.29 16.25-16.25v-20.418c6.906-1.873 12-8.196 12-15.686V96.875h146.957c8.961 0 16.25-7.29 16.25-16.25v-19.75h10.25a6.758 6.758 0 0 1 6.75 6.75v44zm-152.25 46.917h2c4.273 0 7.75 3.477 7.75 7.75v86.667c0 4.273-3.476 7.75-7.75 7.75h-2c-4.273 0-7.75-3.477-7.75-7.75v-86.667c0-4.274 3.477-7.75 7.75-7.75z"/><path d="M228.198 111.042a4.25 4.25 0 0 0-4.25 4.25v46.5a4.25 4.25 0 0 0 8.5 0v-46.5a4.25 4.25 0 0 0-4.25-4.25z"/></g></svg>