<svg xmlns="http://www.w3.org/2000/svg" viewBox="0 0 470 470" width="512" height="512"><g fill="#FFF"><path d="M452.159 16.364H17.841C8.003 16.364 0 24.367 0 34.205V363.41c0 9.837 8.003 17.841 17.841 17.841h163.807v57.386h-70.739a7.5 7.5 0 0 0 0 15h248.182c4.143 0 7.5-3.358 7.5-7.5s-3.357-7.5-7.5-7.5h-70.738V381.25H452.16c9.838 0 17.841-8.003 17.841-17.841V34.205c-.001-9.838-8.004-17.841-17.842-17.841zM273.353 438.636h-76.705V381.25h76.705v57.386zM455 363.409c0 1.54-1.301 2.841-2.841 2.841H17.841c-1.54 0-2.841-1.301-2.841-2.841V34.205c0-1.54 1.301-2.841 2.841-2.841h434.318c1.54 0 2.841 1.301 2.841 2.841v329.204z"/><path d="M431.478 305.227H38.523a7.5 7.5 0 0 0 0 15h392.955a7.5 7.5 0 0 0 0-15zm-321.478-25h40a7.5 7.5 0 0 0 7.5-7.5V163.919a7.5 7.5 0 0 0-7.5-7.5h-40a7.5 7.5 0 0 0-7.5 7.5v108.808a7.5 7.5 0 0 0 7.5 7.5zm7.5-108.808h25v93.808h-25v-93.808zM180 280.227h40a7.5 7.5 0 0 0 7.5-7.5V128.436a7.5 7.5 0 0 0-7.5-7.5h-40a7.5 7.5 0 0 0-7.5 7.5v144.291a7.5 7.5 0 0 0 7.5 7.5zm7.5-144.291h25v129.291h-25V135.936zM250 280.227h40a7.5 7.5 0 0 0 7.5-7.5V94.886a7.5 7.5 0 0 0-7.5-7.5h-40a7.5 7.5 0 0 0-7.5 7.5v177.841a7.5 7.5 0 0 0 7.5 7.5zm7.5-177.841h25v162.841h-25V102.386zM320 280.227h40a7.5 7.5 0 0 0 7.5-7.5v-74.291a7.5 7.5 0 0 0-7.5-7.5h-40a7.5 7.5 0 0 0-7.5 7.5v74.291a7.5 7.5 0 0 0 7.5 7.5zm7.5-74.291h25v59.291h-25v-59.291z"/></g></svg>