<svg xmlns="http://www.w3.org/2000/svg" viewBox="0 0 512 512" width="512" height="512"><g fill="#FFF"><path d="M145.067 136.542h102.4c4.719 0 8.533-3.823 8.533-8.533s-3.814-8.533-8.533-8.533h-102.4c-4.719 0-8.533 3.823-8.533 8.533s3.814 8.533 8.533 8.533zm51.2 136.533H128a8.53 8.53 0 0 0-8.533 8.533 8.53 8.53 0 0 0 8.533 8.533h68.267a8.53 8.53 0 0 0 8.533-8.533 8.53 8.53 0 0 0-8.533-8.533zm-25.6-42.666a8.53 8.53 0 0 0-8.533-8.533h-51.2c-4.719 0-8.533 3.823-8.533 8.533s3.814 8.533 8.533 8.533h51.2a8.531 8.531 0 0 0 8.533-8.533zm-59.734-42.667H230.4a8.53 8.53 0 0 0 8.533-8.533 8.53 8.53 0 0 0-8.533-8.533H110.933a8.53 8.53 0 0 0-8.533 8.533 8.53 8.53 0 0 0 8.533 8.533zm153.6 85.333H230.4a8.53 8.53 0 0 0-8.533 8.533 8.53 8.53 0 0 0 8.533 8.533h34.133a8.53 8.53 0 0 0 8.533-8.533 8.53 8.53 0 0 0-8.533-8.533zm121.78 64.982c-3.328 3.328-3.328 8.738 0 12.066l18.108 18.108a8.473 8.473 0 0 0 6.033 2.5 8.504 8.504 0 0 0 6.033-2.5c3.328-3.328 3.328-8.73 0-12.066l-18.099-18.108a8.55 8.55 0 0 0-12.075 0zm113.186 101.12l-59.802-59.793a8.497 8.497 0 0 0-6.033-2.5h-.008a8.558 8.558 0 0 0-6.042 2.509l-24.064 24.201a8.524 8.524 0 0 0 .034 12.066c3.354 3.328 8.747 3.319 12.066-.034l18.031-18.125 53.751 53.743c4.83 4.838 7.501 11.264 7.501 18.099s-2.671 13.269-7.501 18.099c-9.975 9.975-26.206 9.992-36.198.009l-101.12-101.12c-3.328-3.328-8.73-3.328-12.066 0a8.55 8.55 0 0 0 0 12.075l101.12 101.111c8.311 8.32 19.234 12.476 30.157 12.476s21.862-4.164 30.174-12.476c8.055-8.064 12.501-18.773 12.501-30.174 0-11.393-4.446-22.111-12.501-30.166z"/><path d="M409.6 204.809c0-112.922-91.878-204.8-204.8-204.8S0 91.887 0 204.809s91.878 204.8 204.8 204.8 204.8-91.879 204.8-204.8zM204.8 392.542c-103.518 0-187.733-84.215-187.733-187.733S101.282 17.075 204.8 17.075s187.733 84.215 187.733 187.733S308.318 392.542 204.8 392.542z"/><path d="M204.8 34.142c-94.106 0-170.667 76.561-170.667 170.667S110.694 375.475 204.8 375.475s170.667-76.561 170.667-170.667S298.906 34.142 204.8 34.142zm0 324.267c-84.693 0-153.6-68.907-153.6-153.6s68.907-153.6 153.6-153.6 153.6 68.907 153.6 153.6-68.907 153.6-153.6 153.6z"/><path d="M298.667 221.875h-102.4c-4.719 0-8.533 3.823-8.533 8.533s3.814 8.533 8.533 8.533h102.4c4.719 0 8.533-3.823 8.533-8.533s-3.814-8.533-8.533-8.533zm0-51.2h-34.133a8.53 8.53 0 0 0-8.533 8.533 8.53 8.53 0 0 0 8.533 8.533h34.133a8.53 8.53 0 0 0 8.533-8.533 8.53 8.53 0 0 0-8.533-8.533z"/></g></svg>