<svg xmlns="http://www.w3.org/2000/svg" viewBox="0 0 512 512"><path d="M445.429 48.376C401.306 6.939 331.946 9.115 290.507 53.237L256 89.979l-34.507-36.742C180.054 9.115 110.694 6.938 66.571 48.376c-44.125 41.437-46.299 110.798-4.862 154.922L256 392l194.291-188.704c41.437-44.122 39.263-113.483-4.862-154.92z" fill="#d80027"/><path d="M445.429 48.376C401.306 6.939 331.946 9.115 290.507 53.237L256 89.979V392l194.291-188.704c41.437-44.122 39.263-113.483-4.862-154.92z" fill="#a2001d"/><path d="M506.834 331.922c-10.256-17.032-32.379-22.525-49.413-12.269l-116.224 59.381c6.664-6.533 10.802-15.632 10.802-25.701 0-19.883-16.118-36-36-36H206.861c-45.262 0-66.595-32-142.864-32H47.999v144s36.8 30.4 64 48c24.27 15.704 35.664 16 54.139 16l119.195-.043c14.931 0 29.866-6.357 46.4-14.357 16.533-8 162.83-97.6 162.83-97.6 17.037-10.256 22.528-32.378 12.271-49.411z" fill="#ffd6a0"/><path d="M506.834 331.936c-10.256-17.034-32.379-22.525-49.413-12.269l-116.224 59.381c6.664-6.533 10.802-15.632 10.802-25.702 0-19.883-16.118-36-36-36h-61.216c-.518 0 1.65-.026 1.138-.034v176.019l29.413-.03c14.931 0 29.866-6.357 46.4-14.357 16.533-8 162.83-97.6 162.83-97.6 17.036-10.254 22.527-32.374 12.27-49.408z" fill="#ffc170"/><path fill="#78b9eb" d="M0 285.328h63.998v208H0z"/></svg>