<svg xmlns="http://www.w3.org/2000/svg" viewBox="0 0 339.556 339.556"><circle cx="167.854" cy="94.51" r="69.101" fill="#f9c890"/><path d="M167.854 152.767c-32.175 0-58.257-26.083-58.257-58.257s26.083-58.257 58.257-58.257v116.514z" fill="#f3a069"/><path d="M172.143 86.318c-1.726-.714-3.136-1.349-4.289-1.923-4.682-2.334-5.103-3.668-5.103-5.272 0-2.39 1.886-3.905 5.102-4.164.326-.026.666-.04 1.019-.04 2.807 0 5.338.504 7.74 1.541a6.88 6.88 0 0 0 5.451.012 7.068 7.068 0 0 0 3.836-3.987l.282-.745c1.332-3.519-.315-7.436-3.748-8.915-2.305-.994-4.827-1.69-7.507-2.073v-2.625c0-3.867-3.146-7.014-7.013-7.014s-7.014 3.146-7.014 7.014v3.504c-8.951 2.706-14.476 9.787-14.476 18.642 0 11.577 9.293 16.783 18.34 20.33 1.191.483 2.212.95 3.088 1.404 4.765 2.465 5.223 4.505 5.223 6.26 0 3.133-2.494 4.663-5.221 5.163-.713.131-1.441.191-2.146.191-3.079 0-6.349-.751-9.207-2.114a6.95 6.95 0 0 0-5.634-.144 7.084 7.084 0 0 0-3.965 4.157l-.278.775c-1.198 3.346.279 7.055 3.436 8.627 2.927 1.457 6.508 2.51 10.169 3v2.973c0 3.867 3.146 7.013 7.109 7.013.173 0 .345-.006.514-.019 3.628-.264 6.499-3.301 6.499-6.994v-3.796c9.228-2.786 15.147-10.368 15.147-19.503.001-12.588-9.284-17.987-17.354-21.278z" fill="#956958"/><path d="M156.501 111.506a6.95 6.95 0 0 0-5.634-.144 7.085 7.085 0 0 0-3.965 4.156l-.278.775c-1.198 3.346.279 7.055 3.436 8.627 2.927 1.457 6.508 2.51 10.169 3v2.972c0 3.867 3.146 7.013 7.109 7.013.173 0 .514-.019.514-.019l.001-24.457c-.713.131-1.441.191-2.145.191-3.079.001-6.349-.75-9.207-2.114zm8.263-10.902c1.191.483 2.212.95 3.088 1.404l.002-17.613c-4.682-2.334-5.103-3.668-5.103-5.272 0-2.39 1.886-3.905 5.102-4.164V51.115a7.022 7.022 0 0 0-6.954 7.013v3.504c-8.951 2.706-14.476 9.787-14.476 18.642.001 11.577 9.294 16.782 18.341 20.33z" fill="#7c5849"/><path d="M258.111 235.578l63.542-49.535c7.812-6.221 9.732-17.304 4.467-25.789-6.191-9.979-19.684-12.357-28.913-5.095l-87.26 68.112" fill="#c39f73"/><path d="M116.715 241.519l107.679-6.252c9.644-.56 17.179-8.544 17.179-18.205 0-10.071-8.164-18.236-18.236-18.236h-38.696a48.003 48.003 0 0 1-21.817-5.244l-13.674-6.977a66.804 66.804 0 0 0-75.474 10.237L0 264.304l38.579 49.842 53.634-33.54h116.195a58.795 58.795 0 0 0 36.641-12.813l87.079-69.383c7.812-6.221 9.732-17.304 4.467-25.789-6.191-9.979-19.684-12.357-28.913-5.095l-64.887 51.977" fill="#d9b07f"/><path d="M109.973 247.322l113.739-6.604c10.984-.638 19.564-9.731 19.564-20.733 0-11.47-9.298-20.768-20.768-20.768h-44.069c-3.671 0-10.844 5.886-17.878 12.655-14.728 14.171-32.177 25.209-51.193 32.702-1.508.593-1.013 2.842.605 2.748z" fill="#c39f73"/><path d="M116.715 241.519l107.679-6.252c9.644-.56 17.179-8.544 17.179-18.205 0-10.071-8.164-18.236-18.236-18.236h-38.696a48.003 48.003 0 0 1-21.817-5.244l-13.674-6.977a66.804 66.804 0 0 0-75.474 10.237" fill="#d9b07f"/><path d="M164.778 194.506a47.682 47.682 0 0 1-1.954-.925l-13.674-6.977a66.804 66.804 0 0 0-75.474 10.237L0 264.304l38.579 49.842 53.634-33.54h72.565v-86.1z" fill="#c39f73"/><path d="M164.778 194.506a47.682 47.682 0 0 1-1.954-.925l-13.674-6.977a66.804 66.804 0 0 0-75.474 10.237l43.039 44.677 48.062-2.791.001-44.221z" fill="#c39f73"/><path d="M116.716 241.518l-.038-.039a161.44 161.44 0 0 1-7.31 3.093c-1.508.594-1.013 2.843.605 2.749l54.59-3.17v-5.412l-47.847 2.779z" fill="#ad8e67"/></svg>