<svg xmlns="http://www.w3.org/2000/svg" viewBox="0 0 512 512"><path d="M256 0c141.385 0 256 114.615 256 256S397.385 512 256 512 0 397.385 0 256 114.615 0 256 0z" fill="#1a91a1"/><path d="M261.395 151.962c81.84 0 148.184 66.339 148.184 148.179 0 81.835-66.339 148.184-148.184 148.184-81.835 0-148.179-66.344-148.179-148.184s66.343-148.179 148.179-148.179z" fill="#20d0c2"/><path d="M379.885 211.152c18.641 24.78 29.689 55.592 29.689 88.99 0 81.835-66.339 148.179-148.184 148.179-81.835 0-148.179-66.344-148.179-148.179 0-12.734 1.607-25.085 4.628-36.876a143.823 143.823 0 0 0-1.829 22.844c0 78.741 63.836 142.577 142.577 142.577 78.745 0 142.577-63.836 142.577-142.577 0-27.5-7.792-53.176-21.279-74.953v-.005z" fill="#15bdb1"/><path d="M353.973 184.446c27.556 22.078 47.056 53.79 53.384 90.034-.448-.688-.901-1.589-1.363-2.924-2.896.947-2.988 1.025-6.406 1.593l-.148.208c-1.358 1.935.069 1.113-2.319 3.136-2.845 2.393-4.697 5.658-7.87 7.593-.383 3.386.282 4.143-.568 8.171-.333 1.483-1.995 5.473-3.94 5.168-.614-.115-3.229-6.573-3.843-8.36-1.044-3.039-2.231-5.284-2.988-8.776-.43-1.866-.716-5.436-1.141-6.688-2.037.305-1.944 1.603-3.894.231-1.376-.988-.757-1.598-1.52-3.081a434.487 434.487 0 0 0-4.933-4.559c-1.284-.416-6.217.305-8.305.079-3.75-.346-4.078-.115-6.309-3.118-3.94.194-3.607 1.672-7.45-1.635-2.517-2.129-2.041-5.547-5.69-3.612-.143 3.118 1.376 3.806 2.753 5.247.993 1.104 2.231 1.866 2.748 3.344.051.042.291 1.446.337 1.635 3.556.231 4.411-1.478 6.355-2.924 1.903 1.783.046 2.092 2.799 3.492 2.18 1.104 1.755.457 3.178 2.24.711 2.393-4.887 8.891-6.739 10.069-1.418.91-2.18.379-3.459 1.441-1.894 1.598.236 1.367-3.081 2.587-3.556 1.293-7.071 4.028-10.817 4.254a799.931 799.931 0 0 1-2.416-6.683c-2.374-7.639-2.277-4.674-4.702-8.623-1.136-1.714-.665-2.813-1.423-4.332-.527-1.141-1.326-1.635-2.042-3.035-1.09-2.166-2.369-5.547-4.887-5.205-.522 1.709 2.328 7.482 3.035 8.891.711 1.404 1.848 2.014 2.185 4.028.476 2.771-.097 2.429 1.423 4.286 3.182 3.838-.143 3.159 4.794 6.914 3.7 2.813 2.753 3.649 4.319 7.409 2.416.684 9.63-2.545 10.859-1.598 1.473 2.623-1.704 6.799-2.513 9.081-2.656 7.635-7.307 7.524-10.863 13.371-1.944 3.155-2.845 3.575-4.646 7.372-2.041 4.291 4.125 16.184.43 21.159-.808 1.141-3.418 1.824-6.693 5.284-3.464 3.76.092 3.113-1.238 9.381-1.039 1.446-2.323 1.52-3.603 2.55-.471 1.478-.092 2.651-.901 4.48-.854 2.203-.993 1.025-2.231 2.813-.901 1.399-.804 1.972-1.848 3.265-.901 1.178-1.381 1.515-2.231 2.282-4.129 3.801-13.002 3.912-13.759 3.381-2.092-1.783-.665-2.24-1.187-4.748-.508-2.203-1.677-4.051-2.656-5.75l-.102-.18c-.471-.831-.901-1.63-1.141-2.393-1.709-5.395-1.085-9.492-4.074-14.965-3.75-7.071 2.083-10.753 1.848-14.743-.097-1.062-.476-1.709-.573-2.545-.711-4.406-1.136-8.355-4.078-11.815-3.229-3.76-2.799-2.434-1.76-8.623 1.33-7.104-1.709-5.284-5.977-5.469-2.092-6.457-6.171-3.307-10.249-1.404-2.563 1.173-3.51-.342-6.406.074-6.452.873-1.376 3.649-10.009-3.192-3.603-2.85-1.182-1.404-3.321-4.974-.711-1.293-2.896-3.002-3.894-4.295-3.27-4.101.619-8.24.046-12.951-.998-8.739-2.42-1.141 2.466-11.699 2.563-5.621 6.452-5.663 7.45-8.171.854-2.235.282-3.838 1.898-5.884 1.423-1.672 3.464-1.33 4.268-3.954 1.136-3.229-1.044-3.644-3.418-3.723-.993-3.381-.993-2.545-.236-5.663.43-1.746.046-2.587.43-4.332.947-4.365 8.397-.032 10.535-1.82.993-1.861 1.136-3.681 0-5.473-1.192-1.783-2.753-1.557-3.556-3.265 1.801-1.215.471-.152 2.042-.499 1.848-.416 1.612-.947 3.792-1.363 1.945-.383 3.182-2.166 5.076-3.381 2.707-1.746 1.423-3.307 4.697-3.838 5.27-.915 1.848-.762 2.42-5.667.799-.3 1.561-.647 2.319-.984 1.663 2.166-.425 1.293 1.566 2.734.522-.3 1.141-.605 1.709-.905-.286-2.36-1.376-1.903-2.088-4.827-2.61.416-3.556 2.619-5.644 1.824-2.042-.762-2.134-3.686-2.042-6.115.757-1.824 4.554-2.813 6.023-3.27 2.374-.799 2.042-2.393 4.226-4.559 2.845-2.85.757.037 2.134-3.644 3.132-.115 1.663-.231 3.51-1.178l.092-.037.189-.079c1.095-.494 2.517-.61 3.94-1.099 5.215-1.746 7.348-.873 11.145.679 2.942 1.219 11.815 1.256 12.48 4.984-2.134 2.235-4.175.605-7.261.794.568 2.882.808 2.882 3.418 3.681.43-1.367-.189-.831.522-1.709.854.189 1.709.342 2.559.494.859-2.928 1.852-2.508 4.748-2.85-.476-2.018-.998-1.446.092-3.039 2.993.305.573.042 2.042 2.434 2.088-.268 4.129-2.587 7.021-2.887 1.801-.189 1.709.494 4.268.226 2.088-.226 1.995-.988 4.083-.115.757-1.404 0-1.372 1.852-1.709 2.841-.494 5.312 1.252 8.064 1.635-2.037-2.508-3.981-2.014-1.473-6.194 3.178-.647 3.464-.189 4.84 2.203.781-.439 1.113-.878 1.496-1.104l.019.005zm-237.294 83.738c6.674-30.373 22.664-57.254 44.821-77.489 1.723.6 4 .203 5.709.134.614-1.141.998-2.129 2.088-2.545.43-.152.951-.189 1.658-.152.092.568.24 1.141.379 1.709 0 .042.097.42.051.346.046-.079.092.226.139.342 2.988-1.746.476-1.787 2.088-4.937-2.517-.494-2.185-.194-3.75-1.787 1.52-1.672 4.457-2.24 6.646-2.088-.148 1.52-.854 1.483-.286 2.771 1.709-1.062 2.896-3.907 5.644-3.376.522.379 1.141.721 1.704 1.062-1.423 1.33-3.556 1.404-5.404 2.166-.808 8.245 2.61 1.33 1.469 6.988 2.037-.152 4.032-1.63 4.79-3.15-.757-.988-1.848-.988-2.466-2.166.48-1.52 1.501-2.67 2.942-3.353.975-.467 2.143-.711 3.464-.711 15.085.115 7.921.799 12.572 2.928 1.039.453 2.891.684 3.51 1.598.947 1.441.046 2.808 1.561 3.949 1.33.984 1.52-.037 3.275 2.166-.379 1.252-1.279 2.545-3.127 2.582-2.563.037-1.044-1.709-3.797-1.446.046 2.582 2.61 3.575.236 4.974-2.088 1.256-.762-.453-2.323.42-.046.037-.194.115-.24.152a1.379 1.379 0 0 0-.236.263c-.286.305-.522.573-.757.836-3.797-1.025-3.085-.568-5.362-3.076-.854-.951-.993-1.178-2.517-1.062-.947.032-2.18.448-3.085-.383 1.852-2.319 2.753-.074 5.459-1.446.476-.231 3.464-2.545 3.94-3.076-.808-1.82-.097-.305-1.279-1.483-2.66-2.697-3.423-2.014-7.021-2.014-1.69 1.945-2.951 4.342-4.79 5.399-1.109.642-2.429.781-4.175.037.808 3.265 2.891.757 3.081 4.711-1.376-.268-2.088-.951-3.51-.457-3.035 1.141-.333 1.025-.092 1.635 0 .037 1.423.189 0 .721-1.566.568-.24-.305-3.275-2.092.425-.757.854-1.552 1.279-2.356-2.466.762-5.552 1.977-8.443 3.381-3.275 1.635-6.36 3.496-8.212 5.205-.046 2.85.476.951.757 4.332 4.411.263 2.988 1.589 7.404 2.85.85.231 1.945.457 3.275.684 0 2.129-1.898 3.723-.573 5.926 3.085 2.162 3.182-2.055 3.94-4.748 10.438-2.18 5.409-5.252 8.106-10.993.406-.859.979-1.774 1.811-2.762.804.037 4.074.379 4.79.531 2.374.416 1.095.988 3.653 2.125-.051 2.051-1.09 4.711 1.945 4.217 2.323-.416 1.806-2.24 4.646-2.697 1.279 3.002.947 4.295 1.52 7.903 6.836 2.66 3.797 4.827 2.466 9.806.854.416 1.755.799 2.656 1.173-.046 1.446-.097 2.85-.143 4.259-.143 0-7.307-1.561-7.783-1.709 1.095-3.122 3.085-3.155 4.369-6.346-2.563.453-2.374 1.252-4.226 1.82-1.658.494-2.938.152-4.697.383-.619 2.051-.046-1.787.143.831.092.993.568.042-.097 1.104-2.369-1.104-1.561-3.686-5.977-1.293a67.15 67.15 0 0 0 3.035 1.293c-.139 2.919-.379.716-.993 2.656-1.52 4.974 4.125 1.898 5.598 1.635-.379 2.623-1.991 2.623-4.272 3.339-2.513.762-3.27 1.787-5.265 2.245 0-3.118-.471-.494.901-2.66-1.995.189-3.464 1.099-5.362 1.903l-.189.074c-2.439.993-2.808 1.141-3.085 4.254-2.088.642-4.508 1.372-5.977 2.891-1.469 1.404-2.942 2.808-4.369 4.175-.139.115-.24.226-.328.305.522 3.912 0 3.986-2.374 5.51-1.995 1.289-2.656 1.252-4.503 2.887-5.93 5.321-3.081 2.845-2.753 12.004a70.911 70.911 0 0 1-3.556-1.215c-.905-6.078.328-4.065-4.554-5.469-5.265-1.52-4.554 1.062-6.739 1.52-2.42.527-3.607-2.203-7.118.074-1.94 1.33-3.792 2.203-4.268 4.559-.568 2.85-1.852 4.937-1.663 8.092.333 8.549 8.115 9.039 10.106 5.053 1.326-2.66.998-4.101 5.316-3.418.43 2.282-.24 3.954-.808 5.7-.379 1.025-1.423 2.882-.901 4.295 3.085 1.252 3.178-1.104 7.261 1.326.286 4.065-1.848 8.623 1.279 10.983 2.416 1.783 2.559.189 4.697-.189 2.374-.416 1.949 1.062 4.129 1.404 1.233-1.52.711-.568 1.52-2.434 1.423-3.229 1.801-1.709 5.173-3.686.328-.189.614-.379.947-.605.379.799.808 1.557 1.182 2.319 2.466-2.928 2.753-.079 5.598.721 1.224.337 2.097.457 2.771.466 2.069.032 2.277-.975 5.104.028.333.157.757.268 1.141.383.046 0 .189.074.189.152.051.037.189.148.24.194.471.527.522 1.062.901 1.63a1778.99 1778.99 0 0 1 5.787 5.547c3.746 1.483 3.746-1.293 8.018 2.845 1.801 1.709.993 1.677 1.991 3.875.143.346.425.684.619 1.104.379 1.025.808 2.009 1.233 2.998 1.945 2.55 4.6.951 7.307 3.575 1.561 1.52.379 1.062 3.843 1.672 5.362.873 3.275.383 7.358 3.459 1.561 1.136 1.94.49 3.413 1.478 2.042 2.85 1.515 5.926-.189 8.434-5.265 7.676-3.464 6.42-3.704 12.498-.189 3.492-1.182 10.711-4.462 11.584-11.907 3.349-4.984 5.663-8.111 11.552-.901 1.677-1.566 2.088-2.134 3.423-2.369 5.543-.711 7.409-7.732 6.152.665 1.178.236.379.905 1.441 2.083 3.229 2.42 5.667-1.852 6.457-3.556.684-2.041 0-2.374 3.949-1.376.573-1.991 0-2.896.914 1.233 2.282.092.383 2.185 1.672-.379 1.252-.665 2.471-.998 3.686-.804 2.965-1.044.231-1.326 3.686 1.233.568 2.088.453 3.178 1.94-.143 1.141-1.279 4.254-1.612 6.037 1.755 2.623 3.178 5.432 6.928 5.704-.046 2.199.471 1.972-1.423 2.425-1.617.383-5.03-1.136-6.457-1.898-2.466-1.33-4.743-3.076-6.402-5.584-.947-1.409-.568-.725-1.566-2.051-1.801-2.314-1.085-3.381-1.612-4.942-.286-.914-1.755-1.898-1.141-4.864.143-.836 1.473-4.827-.139-4.143-1.617.647 1.233.379-.998 1.446-.527-1.446-.947-3.57-1.233-5.358-.568-3.002-1.279-3.118-1.617-4.937-.711-4.222 1.095-4.679-.901-11.709-1.312-4.651-.781-15.658-2.166-21.306-.222-.901-.49-1.663-.822-2.245-1.279-2.125-4.411-3.108-6.924-4.822-.143-.032-.236-.074-.286-.152-3.464-2.429-6.739-11.967-9.492-15.533-1.279-1.714-2.088-.951-2.656-3.649-.614-2.471.333-2.051 1.141-4.106-4.222-7.746 5.459-7.63 3.464-16.942-.425-1.709-1.658-4.101-2.702-4.859-1.995.873-1.044 1.367-2.088 3.035a465.24 465.24 0 0 1-4.79-2.73c-4.887-4.711-2.277-1.293-3.653-4.369-2.938-6.457-5.741-2.85-9.251-6.037-1.57-1.33-1.852-3.423-4.457-3.039-3.935.531-1.755 1.141-5.838-.762-3.464-1.63-7.067-3.529-9.487-5.737-.097-3.418 1.141-3.575-.998-6.762a17.595 17.595 0 0 0-1.233-1.663v-.009zm46.451-78.948c.919-.12.919-.522 3.321-1.104-.194-.799-.337-.799-.527-1.099l-.074-.148c-.919.771-1.824 1.557-2.725 2.356l.005-.005zm126.813 44.054l-.092-.065c-.333-.226-.665-.453-.947-.721-2.088-1.861-2.517-3.529-4.836-3.118-.051 1.751.185 1.824 1.044 2.965 3.224 4.028 2.231 2.66 4.743 4.143l.092.051c.596.342 1.284.822 2.231 1.506-3.224 2.845-.236 3.145-2.231 4.097l-.092.046a5.179 5.179 0 0 0-.517.226c-.665-1.672.804-.873-.905-3.302-.951-1.256-1.852-1.635-3.321-2.323-3.704-1.746-3.229-3.108-5.506-5.395-2.563.079-1.991.878-3.797 1.787-2.18 1.062-1.848-.189-4.416.037-2.088 3.69.901.61-2.896 3.649-4.554 3.533-.808 7.219-8.111 8.323-.522.074-.711 0-1.229.189-1.381.49-.573.079-1.381.873.619 1.446-.236 1.215 2.231 1.557 4.503.605 5.081-2.166 8.351-2.85 1.612-.342 11.718-.757 12.429-.573 2.18 2.439.379 4.148.379 6.194 2.374 1.256 5.741 1.557 7.122 2.85 1.561 1.483.808 1.252 1.561 1.515l.092.032c.286.083.702.231 1.427.503 1.898.642 1.797 1.025 3.838 1.178 1.852-6.194-.046-5.547 8.873-2.702 9.298 3.044 5.122.268 9.062.684 1.949.194 1.427.799 4.129.457.527-1.062 4.365-10.716-.619-9.496-1.473.379-.471.91-2.559.379-2.185-.568-.092-.984-2.513-.647-2.374.346-5.219 2.434-7.071-4.743-.711-2.587-1.995-4.827-4.933-.915.757 1.33 1.279 1.446 2.129 2.739-.236.379-1.039 1.33-1.326 1.635-1.612 1.593.665.836-1.945 1.173-1.423-1.062-1.136-2.429-2.513-4.328-2.42-3.533-.854-1.903-2.088-5.284-.965-.848-2.572-1.49-3.889-2.326zm50.668 102.282c-2.083 1.062-2.369 3.496-3.935 4.864-1.709 1.557-3.986.836-4.651 3.723-.854 3.607 1.427 2.508-1.09 7.219-.896 1.746-.947 6.111.43 7.409 4.125 3.986 6.36-6.078 7.307-9.233.711-2.245 1.376-4.785 2.134-6.877.762-2.24 1.852-4.217-.189-7.104h-.006zm-6.831-105.996c.333 4.642 3.085 6.425 5.03 8.549-.24 2.203-.762 1.63-.711 4.711 2.323 1.677 4.032 2.697 7.067 1.861.425-3.723-.762-3.533-1.898-6.078.189-.305.711-.684.804-.757.854-1.141.43.453.854-1.483-2.226-.721-5.838-3.002-6.115-6.004 1.09-.873.757-.342 1.561-.873 1.755-1.141.43.6 1.473-1.33-.896-1.746-1.898-2.055-4.078-1.178-.948.379-3.465 2.166-3.987 2.582zm-19.403 1.219c-1.469-2.051-1.376-3.076-4.222-3.155-1.136 1.219-2.466 3.039-3.085 4.901-.947 2.813-.286.873-.189 3.912-.046.111 0 .268 0 .379-.046 1.824-.476-.342-.194 1.33 2.231-.457.522-.42 2.185-.951 1.566-.531 6.36-1.977 7.736-1.63 3.27.762 6.023 3.344 9.727.762-.189-3.307-4.175-4.559-6.928-6.004.143-3.035.947-.642.757-3.57-.947-.037-1.52-.189-2.42.189-2.134.947-.951 1.219-.951 1.557.097 1.635 2.134-.342-.046 1.677-.619.531-1.617.531-2.374.605h.004zm-55.416-23.02c-.088 5.321 1.76 3.533 3.515 6.157-.804 2.24-.947.494-1.848 2.808-.808 1.94.189.194-.333 3.575 1.376.074 3.413-.416 5.219-.573 2.563-.226 2.517-.457 3.418-3.081-1.423-1.746-2.845-3.492-4.319-5.238-1.852-2.813 0-.878-.568-3.233a58.71 58.71 0 0 1-1.187-2.508c-2.466.841-2.226.61-3.894 2.088l-.003.005z" fill="#fff"/><path d="M360.675 132.85l2.54 59.504c-55.956 57-156.895 50.857-203.646 1.815l-.24-58.141 96.666 40.317L360.67 132.85h.005z" fill="#666"/><path d="M88.486 122.166L256 63.674l167.514 58.492L256 180.654 88.486 122.166z" fill="#807d7d"/><path d="M257.912 106.338l-112.499 30.479c-1.104.189-1.69.808-1.593 1.991l-.619 50.077c3.644 1.399 6.254 5.131 6.254 9.519 0 5.584-4.226 10.11-9.445 10.11s-9.45-4.531-9.45-10.11c0-4.101 2.282-7.63 5.561-9.219l.633-54.885c-.111-1.732.596-3.044 2.693-3.663L253.6 100.162c4.069-1.275 8.332 3.39 4.314 6.185v-.009zm-114.79 88.764l-.014-.014-.023-.023-.037-.042-.014-.014-.023-.023-.042-.042-.014-.014-.023-.023-.042-.037-.014-.014-.023-.023-.042-.037-.014-.014-.028-.023-.042-.037-.014-.009-.028-.023-.042-.037-.014-.014-.028-.023-.042-.032-.014-.009-.028-.023-.06-.042-.032-.023-.046-.032-.014-.009-.032-.023-.046-.028-.014-.009-.032-.023-.046-.028-.014-.009-.037-.018-.046-.028-.014-.009-.037-.023-.046-.028-.009-.005-.037-.018-.046-.028-.014-.005-.037-.018-.051-.023-.009-.005-.037-.018-.051-.023-.014-.005-.037-.014-.051-.023-.014-.005-.037-.014-.051-.023-.009-.005-.042-.014-.051-.018-.009-.005-.042-.014-.051-.018h-.009l-.042-.014-.051-.018-.009-.005-.046-.009-.051-.018-.009-.005-.046-.014-.051-.014-.009-.005-.046-.014-.051-.009h-.005l-.051-.014-.055-.009h-.005l-.051-.009-.055-.009h-.005l-.051-.009-.055-.009h-.005l-.051-.009-.055-.009h-.005l-.051-.005-.055-.005h-.005l-.055-.005-.055-.005h-.056l-.055-.005-.055-.005h-.055l-.083.005h-.032l-.051.005h-.083l-.083.005h-.009l-.069.009-.042.005-.042.005-.069.009h-.009l-.079.009-.023.005-.06.009-.051.009-.028.005-.079.018-.079.014-.032.009-.046.014-.06.014-.014.005-.079.023-.014.005-.06.018-.042.014-.037.014-.065.023-.083.028-.023.009-.051.018-.046.023-.023.009-.069.032h-.005l-.069.032-.028.014-.042.023-.055.028-.014.009-.063.038-.014.005-.055.032-.037.023-.028.018-.065.037-.005.005-.065.042-.023.014-.042.028-.046.028-.018.014-.065.046-.005.005-.06.042-.028.023-.037.028-.051.037-.009.009-.06.051-.014.014-.046.037-.032.032-.028.023-.055.051-.005.005-.06.055-.018.018-.037.037-.037.037-.018.018-.055.055-.005.005-.046.055-.023.028-.028.032-.042.051-.009.009-.051.06-.009.014-.037.051-.028.037-.018.023-.046.065-.046.069-.046.065-.032.046-.014.018-.042.069-.005.009-.037.06-.042.069-.037.06-.005.009-.037.069-.009.018-.028.055-.023.042-.014.028-.037.074-.032.074-.014.028-.018.046a4.946 4.946 0 0 0-.411 1.986c0 2.591 1.963 4.693 4.383 4.693s4.383-2.102 4.383-4.693a4.833 4.833 0 0 0-1.27-3.302l.015.01z" fill="#ffca4f"/><path d="M138.933 202.953l-12.771 81.706c-.208 1.326 4.286 3.132 6.429.471 2.817 3.372 6.545 1.991 7.663-.337 1.413 2.309 4.743 3.589 7.164.134 2.143 2.66 6.933.808 6.582-1.423l-12.692-80.63c-.319-1.201-2.212-.998-2.379.074l.004.005z" fill="#ff5b61"/></svg>