<svg xmlns="http://www.w3.org/2000/svg" viewBox="0 0 410.666 410.666"><path d="M301.834 115.1l-86.367 148.113 32.902 6.58c43.595-9.283 80.061-66.681 53.465-154.693zm-193.002 0l86.367 148.113-32.902 6.58c-43.595-9.283-80.061-66.681-53.465-154.693z" fill="#80362d"/><path d="M251.753 232.52h-.358v-15.37h-92.124v15.354c0 15.042-.063 31.392-13.161 41.282v52.56h118.446v-52.79c-12.762-9.914-12.803-26.123-12.803-41.036z" fill="#ffd7a3"/><path d="M257.975 302.695a36.299 36.299 0 0 0 6.58 1.174v-30.312c-12.762-9.915-12.803-26.124-12.803-41.037h.029v-15.37H179.01l-19.741 6.58c13.162 14.806 53.467 66.626 98.706 78.965z" fill="#fdc88e"/><path d="M297.457 131.606c0 52.696-52.408 118.446-92.124 118.446s-92.124-65.75-92.124-118.446 41.246-72.384 92.124-72.384 92.124 19.688 92.124 72.384z" fill="#ffe1b2"/><path d="M218.494 26.321c-3.697 0-15.701 4.154-25.512 7.794l-.809-1.214-3.698 2.908a655.391 655.391 0 0 0-9.462 3.672l1.539 2.566c-24.976 19.678-65.783 71.274-70.907 76.398-6.58 6.58 14.861 170.593 23.256 75.463 6.082-68.919 50.957-84.739 92.174-94.437 18.644-4.387 17.548-29.282 19.741-40.249 2.192-10.967-19.742-32.901-26.322-32.901z" fill="#80362d"/><path d="M231.654 67.118c12.064 43.32 37.288 91.028 61.203 93.373 12.729 1.248 5.834-62.459 5.834-62.459s-18.233-32.559-20.426-33.656c-2.193-1.097-18.644-13.38-18.644-13.38l-34.547-4.934 6.58 21.056z" fill="#80362d"/><path d="M287.657 137.691c10.767-2.468 17.821 2.805 17.821 13.161 0 13.709-14.479 47.296-29.701 26.321l11.88-39.482z" fill="#ffe1b2"/><path d="M284.297 36.996V26.332a6.591 6.591 0 0 0-6.591-6.591h-6.559c-1.687 0-3.189.682-4.354 1.724-13.296-8.392-29.641-12.953-48.299-14.35v-.524A6.591 6.591 0 0 0 211.903 0h-13.139a6.591 6.591 0 0 0-6.591 6.591v.524c-18.776 1.41-35.062 6.028-48.272 14.368-1.169-1.055-2.683-1.742-4.382-1.742h-6.559a6.591 6.591 0 0 0-6.591 6.591v10.676c-12.659 15.711-19.741 38.002-19.741 68.278v13.161h197.41v-13.161c0-30.458-7.16-52.673-19.741-68.29z" fill="#ffbe1e"/><path d="M205.333 92.124c-42.13 0-105.179 11.784-105.179 26.321h210.359c-.001-14.536-63.05-26.321-105.18-26.321z" fill="#fc9b28"/><path d="M304.038 282.35h-2.193c-24.835 0-37.334-6.563-43.732-15.991-6.408 17.985-27.58 31.208-52.779 31.208s-46.371-13.222-52.779-31.208c-6.398 9.427-18.897 15.991-43.732 15.991h-2.193c-39.976 0-72.384 32.407-72.384 72.384v36.192c0 10.902 8.838 19.741 19.741 19.741H356.68c10.903 0 19.741-8.839 19.741-19.741v-36.192c0-39.977-32.407-72.384-72.383-72.384z" fill="#ffbe1e"/><path d="M93.467 410.666h223.731V283.602c-4.274-.786-8.66-1.253-13.161-1.253h-2.193c-4.004 0-7.579-.227-10.967-.553v70.015c0 3.012-1.999 5.675-4.923 6.395-22.275 5.486-50.216 8.77-80.621 8.77s-58.346-3.284-80.621-8.77c-2.925-.72-4.923-3.383-4.923-6.395v-70.015c-3.389.326-6.963.553-10.967.553h-2.193c-4.501 0-8.887.467-13.161 1.253v127.064z" fill="#4f6e8d"/></svg>