<svg xmlns="http://www.w3.org/2000/svg" viewBox="0 0 490 490"><path d="M480 80v390c0 5.5-4.5 10-10 10H20c-5.5 0-10-4.5-10-10V80h470z" fill="#fff"/><path d="M480 20v60H10V20c0-5.5 4.5-10 10-10h450c5.5 0 10 4.5 10 10z" fill="#ffd248"/><path d="M470 0H20C8.972 0 0 8.972 0 20v450c0 11.028 8.972 20 20 20h450c11.028 0 20-8.972 20-20V20c0-11.028-8.972-20-20-20zm0 20v50H20V20h450zM20 470V90h450v380H20z" fill="#231f20"/><path fill="#231f20" d="M40 35h35v20H40zm50 0h35v20H90zm325 0h35v20h-35z"/><path d="M380 240v40c0 5.5-4.5 10-10 10h-24.4c-2.1 7-4.8 13.7-8.2 19.9l17.2 17.3c3.9 3.9 3.9 10.2 0 14.1l-28.3 28.3c-3.9 3.9-10.2 3.9-14.1 0l-17.3-17.2c-6.2 3.4-12.9 6.1-19.9 8.2V385c0 5.5-4.5 10-10 10h-40c-5.5 0-10-4.5-10-10v-24.4c-7-2.1-13.7-4.8-19.9-8.2l-17.3 17.2c-3.9 3.9-10.2 3.9-14.1 0l-28.3-28.3c-3.9-3.9-3.9-10.2 0-14.1l17.2-17.3c-3.4-6.2-6.1-12.9-8.2-19.9H120c-5.5 0-10-4.5-10-10v-40c0-5.5 4.5-10 10-10h24.4c2.1-7 4.8-13.7 8.2-19.9l-17.2-17.3c-3.9-3.9-3.9-10.2 0-14.1l28.3-28.3c3.9-3.9 10.2-3.9 14.1 0l17.3 17.2c6.2-3.4 12.9-6.1 19.9-8.2V135c0-5.5 4.5-10 10-10h40c5.5 0 10 4.5 10 10v24.4c7 2.1 13.7 4.8 19.9 8.2l17.3-17.2c3.9-3.9 10.2-3.9 14.1 0l28.3 28.3c3.9 3.9 3.9 10.2 0 14.1l-17.2 17.3c3.4 6.2 6.1 12.9 8.2 19.9H370c5.5 0 10 4.5 10 10z" fill="#afb6bb"/><path d="M265 405h-40c-11.028 0-20-8.972-20-20v-17.193a113.806 113.806 0 0 1-7.94-3.253l-12.209 12.138c-3.754 3.754-8.769 5.833-14.101 5.833s-10.347-2.079-14.122-5.854l-28.299-28.299c-3.774-3.774-5.854-8.789-5.854-14.121s2.079-10.347 5.854-14.122l12.117-12.188a113.524 113.524 0 0 1-3.254-7.94H120c-11.028 0-20-8.972-20-20v-40c0-11.028 8.972-20 20-20h17.193a113.806 113.806 0 0 1 3.253-7.94l-12.138-12.209c-3.754-3.754-5.833-8.769-5.833-14.101s2.079-10.347 5.854-14.122l28.299-28.299c3.774-3.774 8.789-5.854 14.121-5.854s10.347 2.079 14.122 5.854l12.188 12.117a113.524 113.524 0 0 1 7.94-3.254V135c0-11.028 8.972-20 20-20h40c11.028 0 20 8.972 20 20v17.193a113.806 113.806 0 0 1 7.94 3.253l12.209-12.138c3.754-3.754 8.769-5.833 14.101-5.833s10.347 2.079 14.122 5.854l28.299 28.299c3.774 3.774 5.854 8.789 5.854 14.121s-2.079 10.347-5.854 14.122l-12.117 12.188a113.524 113.524 0 0 1 3.254 7.94H370c11.028 0 20 8.972 20 20v40c0 11.028-8.972 20-20 20h-17.193a113.806 113.806 0 0 1-3.253 7.94l12.138 12.209c3.754 3.754 5.833 8.769 5.833 14.101s-2.079 10.347-5.854 14.122l-28.299 28.299c-3.774 3.774-8.789 5.854-14.121 5.854s-10.347-2.079-14.122-5.854l-12.188-12.117a113.524 113.524 0 0 1-7.94 3.254V385c-.001 11.028-8.973 20-20.001 20zm-69.897-62.6c1.641 0 3.294.403 4.805 1.231 5.346 2.931 11.391 5.417 17.966 7.39a10 10 0 0 1 7.127 9.578V385h40v-24.4a9.998 9.998 0 0 1 7.127-9.578c6.575-1.973 12.62-4.459 17.966-7.39a10 10 0 0 1 11.858 1.677l17.3 17.199 28.277-28.279-17.22-17.277a9.999 9.999 0 0 1-1.677-11.858c2.931-5.346 5.417-11.391 7.39-17.966a10 10 0 0 1 9.578-7.127H370v-40h-24.4a9.998 9.998 0 0 1-9.578-7.127c-1.973-6.575-4.459-12.62-7.39-17.966a9.998 9.998 0 0 1 1.677-11.858l17.199-17.3-28.279-28.277-17.277 17.22a9.998 9.998 0 0 1-11.858 1.677c-5.346-2.931-11.391-5.417-17.966-7.39a10 10 0 0 1-7.127-9.578V135h-40v24.4a9.998 9.998 0 0 1-7.127 9.578c-6.575 1.973-12.62 4.459-17.966 7.39a10.001 10.001 0 0 1-11.858-1.677l-17.3-17.199-28.277 28.279 17.22 17.277a9.999 9.999 0 0 1 1.677 11.858c-2.931 5.346-5.417 11.391-7.39 17.966a10 10 0 0 1-9.578 7.127H120v40h24.4a9.998 9.998 0 0 1 9.578 7.127c1.973 6.575 4.459 12.62 7.39 17.966a9.998 9.998 0 0 1-1.677 11.858l-17.199 17.3 28.279 28.277 17.277-17.22a10.003 10.003 0 0 1 7.055-2.907z" fill="#231f20"/><path d="M245 220c22.1 0 40 17.9 40 40s-17.9 40-40 40-40-17.9-40-40 17.9-40 40-40z" fill="#fff"/><path d="M245 310c-27.57 0-50-22.43-50-50s22.43-50 50-50 50 22.43 50 50-22.43 50-50 50zm0-80c-16.542 0-30 13.458-30 30s13.458 30 30 30 30-13.458 30-30-13.458-30-30-30zm135-80h20v20h-20zm30 0h20v20h-20zm30 0h20v20h-20zM30 350h20v20H30zm30 0h20v20H60zm30 0h20v20H90zm-25 80h360v20H65z" fill="#231f20"/></svg>