<svg xmlns="http://www.w3.org/2000/svg" viewBox="0 0 512 512"><circle cx="256" cy="256" r="256" fill="#88c5cc"/><path d="M301.672 389.252h.02L288 346.664 252 344l-36 2.664-13.692 42.584h.02c-.204.584-.328 1.18-.328 1.772 0 8.824 22.388 15.972 50 15.972 27.608 0 50-7.148 50-15.972 0-.592-.124-1.184-.328-1.768z" fill="#e6cbc3"/><path d="M301.672 389.252h.02L288 346.664 252 344l-7 .516 29 2.148 13.692 42.584h-.02c.204.588.328 1.18.328 1.776 0 8.064-18.712 14.712-43 15.8 2.292.096 4.616.172 7 .172 27.608 0 50-7.148 50-15.972 0-.596-.124-1.188-.328-1.772z" fill="#d9bfb8"/><path d="M356 168v-41.608C356 93.936 332.916 68 252 68s-104 25.936-104 58.392V168s-16 1.18-16 12v44.276c0 10.816 4 19.724 16 19.724 0 54.084 48.092 116 104 116s104-61.916 104-116c12 0 16-8.908 16-19.724V180c0-10.82-16-12-16-12z" fill="#ffe1d9"/><path d="M252 68c-2.048 0-4.028.028-6 .064 76.048 1.264 98 26.696 98 58.328V244c0 52.14-44.7 111.532-98 115.744 1.992.156 3.988.256 6 .256 55.908 0 104-61.916 104-116V126.392C356 93.936 332.916 68 252 68z" fill="#f2d6ce"/><path d="M252 68c-80.916 0-104 25.936-104 58.392V212c.188-132 148.188-20 169.936-88.564C341.72 140.68 352.296 193.476 356 212v-85.608C356 93.936 332.916 68 252 68z" fill="#99602e"/><path d="M252 68c-2.04 0-4.02.028-5.988.064C322.048 69.328 344 94.756 344 126.392v39.476c6.372 18.116 10.1 36.632 12 46.132v-85.608C356 93.936 332.916 68 252 68z" fill="#8c582a"/><path d="M256 512c63.116 0 120.864-22.892 165.5-60.756L316.188 392l-64 16-64-16L87.5 448.636C132.528 488.056 191.452 512 256 512z" fill="#e6e6e6"/><path d="M252.188 404l-44-36-20 24 32 56zm0 0l44-36 20 24-32 56z" fill="#f5f5f5"/><g fill="#242424"><circle cx="252.2" cy="424" r="20"/><path d="M208.188 444v-40l36 20zm88 0v-40l-36 20z"/><path d="M256 512c64.064 0 122.58-23.584 167.48-62.48L352.188 412c0 35.348-44.764 76-100 76-55.232 0-100-40.652-100-76l-67.832 33.916C129.764 486.98 189.956 512 256 512z"/></g><g fill="#263740"><path d="M388 192h-16v-68c0-47.776-40.436-72-120.188-72C172.312 52 132 76.224 132 124v68h-16v-68c0-40.144 23.564-88 135.812-88C364.372 36 388 83.856 388 124v68z"/><path d="M148 268h-36c-8.8 0-16-7.2-16-16v-68c0-8.8 7.2-16 16-16h36v100zm208 0h36c8.8 0 16-7.2 16-16v-68c0-8.8-7.2-16-16-16h-36v100z"/><path d="M360 308h-64c-4.416 0-8-3.584-8-8s3.584-8 8-8h64c4.192 0 12 0 12-16v-20c0-4.416 3.584-8 8-8s8 3.584 8 8v20c0 20.336-10.204 32-28 32z"/><path d="M304 304c0 6.6-5.4 12-12 12h-24c-6.6 0-12-5.4-12-12v-8c0-6.6 5.4-12 12-12h24c6.6 0 12 5.4 12 12v8z"/></g></svg>