<svg xmlns="http://www.w3.org/2000/svg" viewBox="0 0 59.003 59.003"><path d="M4 30.952H2.211A2.211 2.211 0 0 1 0 28.741v-5.578c0-1.221.99-2.211 2.211-2.211H4v10z" fill="#2d3039"/><path d="M20.052 35.103l-13.404-.815A2.795 2.795 0 0 1 4.051 31.5V20.365c0-1.275.985-2.332 2.256-2.423l13.744-.839v18z" fill="#e74c3d"/><path d="M41.998 48.076l-19.634-9.817a4.184 4.184 0 0 1-2.313-3.741V17.607c0-1.542.849-2.959 2.208-3.687L41.894 3.402c2.787-1.493 6.158.526 6.158 3.686v37.246c0 3.11-3.273 5.133-6.054 3.742" fill="#ecf0f1"/><path d="M49 20.952h-1v10h1c2.2 0 4-1.8 4-4v-2c0-2.2-1.8-4-4-4" fill="#e74c3d"/><path d="M55.999 32.952a1 1 0 0 1-.811-1.583c.566-.79 1.877-2.897 1.813-5.391-.05-1.976-.661-3.809-1.817-5.45a1 1 0 1 1 1.635-1.152c1.388 1.97 2.122 4.174 2.183 6.551.08 3.098-1.503 5.653-2.188 6.608a1.004 1.004 0 0 1-.815.417" fill="#d1d4d2"/><path d="M8.052 34.376v3.577h3a1 1 0 1 1 0 2h-3v2h3a1 1 0 1 1 0 2h-3v2h3a1 1 0 1 1 0 2h-3v2h3a1 1 0 1 1 0 2h-3v.65c0 1.925 1.575 3.5 3.5 3.5s3.5-1.575 3.5-3.5V34.812l-7-.436z" fill="#c03b2b"/><path d="M12.052 50.952a1 1 0 0 0-1-1h-3v2h3a1 1 0 0 0 1-1m0-4a1 1 0 0 0-1-1h-3v2h3a1 1 0 0 0 1-1m0-4a1 1 0 0 0-1-1h-3v2h3a1 1 0 0 0 1-1m0-4a1 1 0 0 0-1-1h-3v2h3a1 1 0 0 0 1-1" fill="#e74c3d"/><path d="M41.842 3.402L40 4.389v42.714l1.947.973C44.728 49.467 48 47.445 48 44.335V7.089c0-3.161-3.372-5.18-6.158-3.687" fill="#556180"/><path d="M30.896 14.509a1 1 0 0 0-1.34-.453l-4.451 2.201A3.982 3.982 0 0 0 23 19.773v2.179a1 1 0 1 0 2 0v-2.179c0-.735.402-1.407 1.021-1.738l4.423-2.186a1 1 0 0 0 .452-1.34M24 23.952a1 1 0 0 0-1 1v2a1 1 0 1 0 2 0v-2a1 1 0 0 0-1-1" fill="#fff"/></svg>