<svg xmlns="http://www.w3.org/2000/svg" viewBox="0 0 59.482 59.482"><path d="M54.46 32.227c-.926 1.441-3.823 4.274-3.719 6 .193 3.184-1.774 7.225-4.54 8.645-1.5.77-1.104 2.025-1.849 3.573-1.375 2.857-4.188 1.326-4.611 4.387-.714 5.171-5.982 4.425-8.571.406-.655-1.017-2.202-1.017-2.857 0-2.589 4.019-7.857 4.765-8.571-.406-.422-3.061-3.236-1.529-4.611-4.387-.745-1.549-.349-2.804-1.849-3.573-2.766-1.42-4.733-5.461-4.54-8.645.104-1.726-2.792-4.559-3.719-6-1.708-2.658-1.708-6.342 0-9 .926-1.441 1.371-4.274 1.266-6-.193-3.184 1.481-6.58 4.247-8 1.5-.77 2.715-.451 3.46-2 1.375-2.857 2.662-3.199 5.745-3 1.671.108 2.417-2.583 5-2.977.013-.002.022-.015.034-.023.912-.618 2.645.115 3.803 1.132.649.569 1.581.56 2.269.04.922-.697 2.328-1.171 3.86-1.171.014 0 .02.023.034.023 2.583 0 3.329 3.085 5 2.977 3.083-.199 4.371.143 5.745 3 .745 1.549 1.96 1.23 3.46 2 2.766 1.42 4.44 4.816 4.247 8-.104 1.726.34 4.559 1.266 6 1.709 2.657 1.709 6.341.001 8.999z" fill="#efc9b3"/><path d="M20.741 42c-3.86 0-7 3.141-7 7a1 1 0 1 0 2 0c0-2.757 2.243-5 5-5a1 1 0 1 0 0-2zm-7-32c1.654 0 3 1.346 3 3a1 1 0 1 0 2 0c0-2.757-2.243-5-5-5a1 1 0 1 0 0 2zm10 14a1 1 0 1 0-2 0c0 3.309-2.691 6-6 6-4.411 0-8 3.589-8 8a1 1 0 1 0 2 0c0-3.309 2.691-6 6-6 4.411 0 8-3.589 8-8zm1.189 7.979a.999.999 0 0 0-1.414 0c-1.279 1.279-1.984 2.979-1.984 4.785s.705 3.506 1.984 4.785a.997.997 0 0 0 1.414 0 .999.999 0 0 0 0-1.414c-.901-.901-1.398-2.099-1.398-3.371s.497-2.47 1.398-3.371a.999.999 0 0 0 0-1.414zm.353-18.876c-3.679-.638-7.191 1.821-7.836 5.496a4.774 4.774 0 0 1-5.521 3.87 1 1 0 1 0-.346 1.971c.395.069.787.103 1.174.103 3.222 0 6.085-2.316 6.662-5.598a4.777 4.777 0 0 1 5.521-3.871 1 1 0 1 0 .346-1.971z" fill="#cf8c6d"/><g fill="#fff"><circle cx="37.741" cy="56.483" r="1"/><circle cx="33.741" cy="56.483" r="1"/><circle cx="39.741" cy="54.483" r="1"/><circle cx="31.741" cy="54.483" r="1"/><circle cx="37.741" cy="52.483" r="1"/><circle cx="33.741" cy="52.483" r="1"/><circle cx="35.741" cy="50.483" r="1"/><circle cx="39.741" cy="50.483" r="1"/><circle cx="31.741" cy="50.483" r="1"/><circle cx="39.741" cy="46.483" r="1"/><circle cx="31.741" cy="46.483" r="1"/><circle cx="33.741" cy="44.483" r="1"/><circle cx="35.741" cy="42.483" r="1"/><circle cx="39.741" cy="42.483" r="1"/><circle cx="31.741" cy="42.483" r="1"/><circle cx="37.741" cy="40.483" r="1"/><circle cx="31.741" cy="38.483" r="1"/><circle cx="37.741" cy="36.483" r="1"/><circle cx="33.741" cy="36.483" r="1"/><circle cx="31.741" cy="34.483" r="1"/><circle cx="33.741" cy="32.483" r="1"/><circle cx="35.741" cy="30.483" r="1"/><circle cx="39.741" cy="30.483" r="1"/><circle cx="31.741" cy="30.483" r="1"/><circle cx="37.741" cy="28.483" r="1"/><circle cx="35.741" cy="26.483" r="1"/><circle cx="39.741" cy="26.483" r="1"/><circle cx="31.741" cy="26.483" r="1"/><circle cx="33.741" cy="24.483" r="1"/><circle cx="35.741" cy="22.483" r="1"/><circle cx="37.741" cy="20.483" r="1"/><circle cx="33.741" cy="20.483" r="1"/><circle cx="31.741" cy="18.483" r="1"/><circle cx="37.741" cy="16.483" r="1"/><circle cx="33.741" cy="16.483" r="1"/><circle cx="35.741" cy="14.483" r="1"/><circle cx="39.741" cy="14.483" r="1"/><circle cx="37.741" cy="12.483" r="1"/><circle cx="33.741" cy="12.483" r="1"/><circle cx="31.741" cy="10.483" r="1"/><circle cx="37.741" cy="8.483" r="1"/><circle cx="39.741" cy="6.483" r="1"/><circle cx="31.741" cy="6.483" r="1"/><circle cx="37.741" cy="4.483" r="1"/><circle cx="33.741" cy="4.483" r="1"/><circle cx="35.741" cy="2.483" r="1"/><circle cx="31.741" cy="2.483" r="1"/><circle cx="41.741" cy="52.483" r="1"/><circle cx="43.741" cy="50.483" r="1"/><circle cx="41.741" cy="48.483" r="1"/><circle cx="43.741" cy="46.483" r="1"/><circle cx="45.741" cy="44.483" r="1"/><circle cx="47.741" cy="42.483" r="1"/><circle cx="43.741" cy="42.483" r="1"/><circle cx="45.741" cy="40.483" r="1"/><circle cx="49.741" cy="40.483" r="1"/><circle cx="47.741" cy="38.483" r="1"/><circle cx="45.741" cy="36.483" r="1"/><circle cx="49.741" cy="36.483" r="1"/><circle cx="41.741" cy="36.483" r="1"/><circle cx="45.741" cy="32.483" r="1"/><circle cx="49.741" cy="32.483" r="1"/><circle cx="41.741" cy="32.483" r="1"/><circle cx="45.741" cy="28.483" r="1"/><circle cx="49.741" cy="28.483" r="1"/><circle cx="43.741" cy="26.483" r="1"/><circle cx="45.741" cy="24.483" r="1"/><circle cx="47.741" cy="22.483" r="1"/><circle cx="43.741" cy="22.483" r="1"/><circle cx="45.741" cy="20.483" r="1"/><circle cx="41.741" cy="20.483" r="1"/><circle cx="47.741" cy="18.483" r="1"/><circle cx="49.741" cy="16.483" r="1"/><circle cx="47.741" cy="14.483" r="1"/><circle cx="43.741" cy="14.483" r="1"/><circle cx="49.741" cy="12.483" r="1"/><circle cx="41.741" cy="12.483" r="1"/><circle cx="47.741" cy="10.483" r="1"/><circle cx="43.741" cy="10.483" r="1"/><circle cx="45.741" cy="8.483" r="1"/><circle cx="43.741" cy="6.483" r="1"/><circle cx="41.741" cy="4.483" r="1"/><circle cx="51.741" cy="34.483" r="1"/><circle cx="53.741" cy="32.483" r="1"/><circle cx="53.741" cy="28.483" r="1"/><circle cx="51.741" cy="26.483" r="1"/><circle cx="53.741" cy="24.483" r="1"/><circle cx="51.741" cy="22.483" r="1"/><circle cx="51.741" cy="18.483" r="1"/><circle cx="51.741" cy="14.483" r="1"/></g><path d="M36.254 59.482c-2.15 0-4.476-1.453-5.925-3.702-.177-.274-.47-.305-.588-.305s-.411.03-.588.305c-1.449 2.249-3.775 3.702-5.925 3.702-2.414 0-4.087-1.688-4.478-4.514-.142-1.026-.529-1.174-1.465-1.529-.942-.359-2.233-.85-3.056-2.561-.305-.634-.447-1.224-.562-1.697-.207-.856-.298-1.14-.843-1.42-3.028-1.555-5.308-5.859-5.082-9.596.051-.844-1.443-2.688-2.335-3.789-.5-.618-.932-1.151-1.227-1.609-1.908-2.968-1.908-7.113 0-10.082.774-1.203 1.206-3.811 1.11-5.398-.225-3.707 1.745-7.388 4.789-8.95.587-.302 1.115-.454 1.581-.588.801-.231 1.132-.327 1.434-.956 1.284-2.667 2.701-3.612 5.413-3.612.397 0 .828.018 1.298.048h.001c.366 0 .79-.419 1.279-.904C21.822 1.596 22.82.607 24.377.3c.361-.201.771-.3 1.229-.3 1.326 0 2.745.83 3.631 1.606.421.369.74.196 1.007-.006C31.398.727 33.025.226 34.707.226l.505.05c1.569.181 2.56 1.239 3.301 2.032.423.452.861.921 1.142.921.492-.031.923-.049 1.32-.049 2.712 0 4.128.945 5.412 3.612.303.629.634.725 1.435.956.465.134.993.286 1.581.588 3.044 1.563 5.013 5.243 4.789 8.95-.096 1.588.336 4.195 1.11 5.398 1.908 2.969 1.908 7.114 0 10.082-.295.458-.727.991-1.227 1.609-.892 1.102-2.386 2.945-2.335 3.789.227 3.736-2.053 8.041-5.082 9.596-.545.28-.637.563-.843 1.42-.114.474-.256 1.063-.561 1.697-.823 1.711-2.114 2.201-3.057 2.561-.936.355-1.323.503-1.465 1.529-.46 3.33-2.614 4.515-4.478 4.515zm-6.513-6.006c.928 0 1.776.457 2.269 1.221 1.091 1.692 2.756 2.786 4.244 2.786 1.361 0 2.248-.99 2.496-2.787.304-2.2 1.709-2.735 2.735-3.125.831-.316 1.488-.566 1.965-1.559.212-.441.317-.878.419-1.3.228-.945.487-2.018 1.874-2.729 2.307-1.184 4.175-4.78 3.999-7.695-.098-1.62 1.429-3.506 2.777-5.17.444-.548.863-1.065 1.098-1.432 1.499-2.33 1.499-5.587 0-7.918-1.043-1.622-1.543-4.63-1.423-6.602.175-2.893-1.383-5.857-3.706-7.05-.415-.213-.826-.331-1.222-.446-.934-.27-1.992-.575-2.682-2.01-1.021-2.121-1.797-2.479-3.61-2.479-.358 0-.747.017-1.17.044l-.15.005c-1.148 0-1.921-.826-2.603-1.555-.829-.887-1.398-1.425-2.311-1.425l-.468-.009c-1.083.074-2.114.419-2.822.955-1.048.791-2.572.756-3.532-.086C27.185 2.467 26.212 2 25.606 2a.663.663 0 0 0-.234.035l-.156.144-.328.061c-1.033.157-1.694.813-2.395 1.506-.703.696-1.499 1.484-2.654 1.484l-.163-.005a18.59 18.59 0 0 0-1.169-.044c-1.813 0-2.589.358-3.61 2.479-.689 1.435-1.748 1.74-2.682 2.01-.396.115-.807.233-1.222.446-2.322 1.192-3.881 4.157-3.706 7.05.12 1.972-.38 4.979-1.423 6.602-1.499 2.331-1.499 5.588 0 7.918.235.366.654.884 1.098 1.432 1.348 1.664 2.875 3.55 2.777 5.17-.176 2.915 1.692 6.512 3.999 7.695 1.387.712 1.646 1.784 1.874 2.729.102.422.207.858.42 1.3.477.992 1.134 1.242 1.965 1.559 1.026.39 2.432.925 2.735 3.125.248 1.797 1.135 2.787 2.496 2.787 1.465 0 3.17-1.119 4.244-2.786a2.683 2.683 0 0 1 2.269-1.221z" fill="#cf8c6d"/></svg>