<svg xmlns="http://www.w3.org/2000/svg" viewBox="0 0 57.92 57.92"><path d="M48.435 44.158c-1.267-9.561-1.007-19.849-11.438-25.858-.628-.362-.469-1.303.247-1.419 1.205-.196 2.234-.38 2.95-.88H38.96a3 3 0 1 1 0-6h.787c-.706-.404-1.6-.517-2.559-.528a1.504 1.504 0 0 1-1.399-1.022 13.065 13.065 0 0 0-.822-1.9l1.428-1.428A3 3 0 1 0 32.152.88l-1.519 1.519c-1.838-.722-3.87-.574-5.766.615-.613.385-1.426.198-1.861-.381-.453-.604-.923-1.177-1.528-1.484-.701-.357-2.046-.016-2.783.485-.405.275-.271 1.543-.161 2.333.15 1.079.794 2.407.816 3.328v-.001c2.174 1.44 4.865 4.055 3.609 7.707-1.28 3.719-8.031 8.99-13.68 10.364-2.308 8.281-.695 15.791 5.425 22.355 7.884 8.457 18.12 10.834 29.277 10.065 3.114-.215 4.913-2.162 4.97-5.259.053-2.787-.149-5.602-.516-8.368z" fill="#c5411e"/><path d="M20.389 41.719c-5.11-5.482-7.067-11.625-6.234-18.323-1.616.881-3.288 1.582-4.876 1.968-2.308 8.281-.695 15.791 5.425 22.355 7.884 8.457 18.12 10.834 29.277 10.065 3.114-.215 4.913-2.162 4.97-5.259.004-.234-.003-.47-.002-.705-10.876.62-20.846-1.826-28.56-10.101z" fill="#b02721"/><path d="M19.351 7.293c.006.259-.028.492-.148.671-.634.949-2.6 1.47-3.94 1.388a8.186 8.186 0 0 0-1.001-.004l-5.048-5.05a1.452 1.452 0 0 0-2.053 0l-.776.776a1.452 1.452 0 0 0 0 2.053l5.155 5.155c-.021.23-.042.46-.048.72-.074 3.165-.155 6.54-1.256 9.433a33.475 33.475 0 0 0-.956 2.929C14.929 23.99 21.68 18.719 22.96 15c1.257-3.652-1.434-6.267-3.609-7.707z" fill="#c29ab4"/><path d="M45.96 16h-7a3 3 0 1 1 0-6h7a3 3 0 1 1 0 6z" fill="#9a879a"/><circle cx="45.96" cy="13" r="3" fill="#556080"/><path d="M39.96 50a1 1 0 0 1-1-1v-2.393c-7.239-3.823-11.619-8.562-13.022-14.092-1.808-7.122 2.033-12.841 2.197-13.081a1 1 0 0 1 1.652 1.129c-.035.052-3.5 5.251-1.904 11.485 1.299 5.075 5.516 9.47 12.533 13.061.334.172.544.516.544.891v3a1 1 0 0 1-1 1z" fill="#f7b563"/><path d="M50.837 26.192l-2.035-.474 1.426-1.528a1.452 1.452 0 0 0-.071-2.052l-.802-.749a1.452 1.452 0 0 0-2.052.071l-2.997 3.211-.611-.142c.945 1.459 1.661 3.009 2.213 4.622l4.022.936a1.452 1.452 0 0 0 1.743-1.085l.249-1.068a1.451 1.451 0 0 0-1.085-1.742z" fill="#ba98b1"/><path d="M39.961 47a1 1 0 0 1-.556-1.832l3-2a1 1 0 1 1 1.11 1.664l-3 2a1.002 1.002 0 0 1-.554.168zM25.96 52h-.006a1 1 0 0 1-.994-1.006l.016-2.756c-4.156-4.918-3.995-12.012.43-15.982a1 1 0 1 1 1.336 1.488c-3.693 3.314-3.702 9.35-.02 13.454.166.185.257.425.256.674l-.018 3.134a1 1 0 0 1-1 .994zm14.496-18a.997.997 0 0 1-.821-.428c-1.816-2.604-3.948-4.645-6.004-5.747-2.292-1.229-4.342-1.232-6.099-.005a1.003 1.003 0 0 1-1.393-.248 1.002 1.002 0 0 1 .248-1.393c2.39-1.667 5.223-1.708 8.188-.117 2.328 1.248 4.707 3.509 6.7 6.365A1.002 1.002 0 0 1 40.456 34z" fill="#f7b563"/><path d="M36.96 35a1 1 0 0 1-1-1v-4a1 1 0 0 1 .4-.8l4-3a.998.998 0 1 1 1.199 1.599l-3.6 2.7V34a.998.998 0 0 1-.999 1zm-8 14h-3a1 1 0 1 1 0-2h3a1 1 0 1 1 0 2zm4-1a1 1 0 0 1-1-1v-6a1 1 0 0 1 1-1h6a1 1 0 1 1 0 2h-5v5a1 1 0 0 1-1 1z" fill="#f7b563"/></svg>