<svg xmlns="http://www.w3.org/2000/svg" viewBox="0 0 52.756 52.756"><path d="M5.325 49.487c-2.928-2.5-3.279-6.94-.78-9.869l14.283-16.733c2.5-2.928 6.94-3.279 9.869-.78 2.928 2.5 3.279 6.94.78 9.869L15.194 48.707c-2.5 2.929-6.941 3.28-9.869.78z" fill="#db83ae"/><path d="M40.705 38.804L25.22 36.961 15.194 48.707c-.173.202-.357.39-.547.567.77.429 1.632.721 2.557.831l21.846 2.601c3.823.455 7.323-2.3 7.778-6.123.456-3.823-2.3-7.323-6.123-7.779z" fill="#6562ae"/><path d="M46.832 30.942c-3.179 2.171-7.557 1.346-9.728-1.833L24.698 10.941c-2.171-3.179-1.346-7.557 1.833-9.728 3.179-2.171 7.557-1.346 9.728 1.833l12.406 18.168c2.171 3.18 1.346 7.557-1.833 9.728z" fill="#e0d7cf"/><path d="M22.982 39.583l6.494-7.608c2.5-2.928 2.149-7.369-.78-9.869-2.928-2.5-7.369-2.149-9.869.78l-6.56 7.685 10.715 9.012z" fill="#6c4f94"/><path d="M40.705 38.804l-9.93-1.182-1.655 13.902 9.93 1.182c3.823.455 7.323-2.3 7.778-6.123.456-3.823-2.3-7.323-6.123-7.779z" fill="#a6b45e"/><path d="M41.898 11.304l-5.639-8.258C34.088-.133 29.71-.959 26.531 1.213s-4.004 6.549-1.833 9.728l5.639 8.258 11.561-7.895z" fill="#1e8d5a"/></svg>