<svg xmlns="http://www.w3.org/2000/svg" viewBox="0 0 408.211 408.211"><path d="M131.812 246.495c14.716-9.475 13.07-50.835 13.07-57.416h118.446c0 6.58-1.825 47.941 12.89 57.416l-72.113 67.611-72.293-67.611z" fill="#ffd7a3"/><path d="M250.168 261.463l26.051-14.968c-14.716-9.474-12.89-50.835-12.89-57.416H144.883c8.498 24.433 64.706 66.352 105.285 72.384z" fill="#fdc88e"/><path d="M268.953 236.763c-13.912 7.26-37.746 12.055-64.847 12.055-27.19 0-51.084-4.828-64.976-12.128-1.824 4.27-4.182 7.786-7.318 9.805l72.294 67.611 72.113-67.611c-3.118-2.007-5.458-5.496-7.266-9.732z" fill="#527992"/><path d="M291.57 116.696c10.767-2.468 17.821 2.805 17.821 13.161 0 13.709-14.479 47.296-29.701 26.321s11.88-39.482 11.88-39.482zm-176.423 0c-9.864-2.468-16.326 2.805-16.326 13.161 0 13.709 13.265 47.296 27.21 26.321 13.945-20.975-10.884-39.482-10.884-39.482z" fill="#ffe1b2"/><path d="M296.23 103.535c0 52.696-30.343 118.446-92.124 118.446s-92.124-65.75-92.124-118.446c0-72.44 41.246-98.761 92.124-98.761s92.124 26.733 92.124 98.761z" fill="#ffe1b2"/><path d="M296.099 99.959c-1.387-69.26-41.991-95.185-91.994-95.185-50.007 0-90.615 25.534-91.994 95.186 23.772-16.66 39.352-44.213 39.352-75.445 0-.171-.025-.337-.026-.508 13.98 12.549 32.403 20.249 52.668 20.249s38.688-7.7 52.668-20.249c-.001.171-.026.337-.026.508.001 31.232 15.581 58.784 39.352 75.444z" fill="#dcdcdc"/><path d="M111.981 103.535c0 6.991.551 14.213 1.621 21.479l4.959-1.794 9.034 2.973s-2.454-29.063 13.449-49.352c10.091-12.875 19.055-27.829 10.419-52.325-.66-1.872-1.433-3.651-2.25-5.386-22.555 14.614-37.232 41.291-37.232 84.405zm184.548 0c0 6.991-.551 14.213-1.621 21.479l-5.257-1.794-8.736 2.973s2.454-29.063-13.449-49.352c-10.091-12.875-19.055-27.829-10.419-52.325.66-1.872 1.433-3.651 2.25-5.386 22.555 14.614 37.232 41.291 37.232 84.405z" fill="#7e5449"/><path d="M204.256 76.334c33.764 0 65.335 5.82 92.272 15.925C292.355 25.276 252.667 0 204.256 0c-48.425 0-88.122 24.906-92.275 92.259 26.938-10.105 58.51-15.925 92.275-15.925z" fill="#00b39b"/><path d="M113.603 125.014l37.038 54.961 3.454-12.666-41.867-55.823c.233 4.161.777 9.294 1.375 13.528zm181.551 0l-37.038 54.961-3.454-12.666 41.867-55.823c-.234 4.161-.778 9.294-1.375 13.528z" fill="#d0d7dc"/><path d="M188.705 130.977L152.91 146.14a13.16 13.16 0 0 0-8.027 12.118v37.063c14.735 16.068 34.444 26.659 59.223 26.659s44.488-10.591 59.223-26.659v-37.063a13.16 13.16 0 0 0-8.027-12.118l-35.795-15.163a39.493 39.493 0 0 0-30.802 0z" fill="#e4ebf0"/><path d="M325.056 247.934l-29.892-7.471c-3.374-.843-6.995-.404-9.927 1.467-18.601 11.864-47.932 19.533-80.982 19.533-33.093 0-62.454-7.69-81.05-19.58-2.934-1.876-6.56-2.319-9.939-1.474l-30.11 7.525c-27.576 8.823-50.138 39.733-50.138 68.687v71.85c0 10.903 8.838 19.741 19.741 19.741h302.694c10.903 0 19.741-8.838 19.741-19.741v-71.85c0-28.955-22.562-59.864-50.138-68.687z" fill="#00b39b"/><circle cx="114.551" cy="349.854" r="6.58" fill="#e4ebf0"/><circle cx="114.551" cy="316.952" r="6.58" fill="#e4ebf0"/><circle cx="114.551" cy="382.755" r="6.58" fill="#e4ebf0"/></svg>