<svg xmlns="http://www.w3.org/2000/svg" viewBox="0 0 59 59"><path d="M53.283 14.315c2.533 9.574-1.084 20.991-3.195 30.411-.918 4.094-1.685 8.286-3.791 11.976-3.333 5.841-5.989-1.786-7.036-5.012-1.287-3.965-1.706-9.087-5.667-11.446-3.946-2.35-7.607.052-9.893 3.396-2.316 3.388-3.194 7.325-4.663 11.093-.678 1.743-1.427 3.487-3.27 4.267-1.956 0-3.314-3.573-4.032-5.308-3.92-9.466-5.125-20.193-6.639-30.255-1.065-7.079 1.23-15.494 8.583-18.099 3.996-1.416 9.469-.11 13.47 1.069 2.299.678 1.875.457 4.165-.338.176-.061.349-.143.529-.218 4.901-2.027 10.809-2.043 15.122.731 2.911 1.872 5.475 4.55 6.317 7.733z" fill="#ece3d2"/><path d="M33.594 40.245c-3.946-2.35-7.607.052-9.893 3.395a18.385 18.385 0 0 0-1.005 1.679l.276.658c1.122 2.655 4.21 8.478 7.935 7.373 1.884-.559 2.876-2.698 3.661-4.311.61-1.253 1.773-3.18 2.347-4.882-.732-1.575-1.737-2.969-3.321-3.912z" fill="#ddd3c3"/><path d="M17.744 7.721c-.38 0-.737.021-1.083.051L11.892 44.56c.715 2.742 1.555 5.424 2.615 7.983l.124.301c.179.436.582 1.417 1.004 2.216.19-.376.386-.843.608-1.416.396-1.014.745-2.04 1.115-3.126.973-2.856 1.979-5.811 3.866-8.569.199-.292.411-.555.62-.825l4.322-31.878c-2.273-.667-5.561-1.525-8.422-1.525z" fill="#c1b6a7"/><path d="M15.685 54a1 1 0 0 1-.994-1.115l5.466-47a1 1 0 0 1 1.986.23l-5.466 47a1 1 0 0 1-.992.885z" fill="#7383bf"/><path fill="#7383bf" d="M14.15 35h6v2h-6zm-.21 3h6v2h-6zm-.209 3h6v2h-6zm-.21 3h6v2h-6zm-.209 3h6v2h-6z"/><path fill="#556080" d="M18.15 1h6v5h-6z"/><path fill="#3e465b" d="M16.15 0h10v2h-10z"/><path d="M29.266 6.97c-.993.903-.592 2.397.445 3.075 1.264.826 2.808.973 4.274 1.109 1.285.119 1.273-1.882 0-2-.687-.064-1.362-.142-2.034-.305a4.486 4.486 0 0 1-.842-.299 1.986 1.986 0 0 1-.361-.219c-.083-.134-.106-.116-.069.052.957-.868-.462-2.279-1.413-1.413zm11.619 2.21c2.027.294 3.743 1.055 5.262 2.442.735.671 1.256 1.519 1.725 2.384.211.389 1.65 3.955.235 3.828-1.285-.115-1.274 1.886 0 2 3.503.312 2.657-4.308 1.761-6.254-1.597-3.468-4.667-5.78-8.45-6.329-1.262-.183-1.805 1.744-.533 1.929z" fill="#fff"/></svg>