<svg xmlns="http://www.w3.org/2000/svg" viewBox="0 0 404.002 404.002"><path d="M243.45 186.136v28.955c0 27.91 19.913 51.164 46.305 56.35l-1.11 76.906h32.87l12.977-80.435v-81.775H243.45v-.001z" fill="#a4a9ad"/><path d="M299.081 273.497c-3.55 0-6.809 1.221-9.402 3.252l-.344 23.781a15.211 15.211 0 0 0 9.747 3.518c8.436 0 15.276-6.84 15.276-15.275-.001-8.438-6.841-15.276-15.277-15.276zm9.757-27.38c0 13.959 11.156 25.291 25.036 25.621l.618-3.826v-47.449c-14.168-.001-25.654 11.486-25.654 25.654zm-19.973 86.955l-.22 15.275h32.87l2.464-15.275z" fill="#333e48"/><path fill="#a4a9ad" d="M138.849 348.347h-31.17L97.88 228.622h50.768z"/><path d="M102.785 288.546l2.854 34.863c7.806-1.85 13.619-8.844 13.619-17.215-.001-9.363-7.272-17.009-16.473-17.648zm3.644 44.526l1.25 15.275h31.17l1.25-15.275z" fill="#333e48"/><g fill="#ff9c9f"><circle cx="282.991" cy="232.583" r="53.746"/><path d="M252.626 278.158c0 2.773-2.249 5.021-5.023 5.021s-5.023-2.248-5.023-5.021v-21.672a5.024 5.024 0 0 1 10.046 0v21.672zm18.793 12.16a5.023 5.023 0 0 1-10.046 0v-21.672a5.024 5.024 0 0 1 10.046 0v21.672zm21.483 2.662a5.022 5.022 0 0 1-5.023 5.021 5.022 5.022 0 0 1-5.023-5.021v-21.672a5.024 5.024 0 0 1 10.046 0v21.672zm20.47-6.111a5.024 5.024 0 0 1-10.046 0v-21.672a5.025 5.025 0 0 1 5.023-5.023 5.025 5.025 0 0 1 5.023 5.023v21.672z"/></g><path d="M353.747 110.412c-10.102-7.908-22.816-12.637-36.641-12.637H176.265v-.002h-56.758c-20.754 0-37.578 16.826-37.578 37.578v56.961c0 32.865 26.642 59.506 59.506 59.506h.001v.004h.464l7.9 96.525h31.17l7.901-96.525h109.983c8.276 9.932 19.84 17.029 33.022 19.619l-1.11 76.906h32.87l12.977-80.435V157.283a59.211 59.211 0 0 0-8.043-29.863c12.379 7.736 20.636 21.479 20.636 37.121v18.006h11.006V164.54c0-27.373-20.193-50.121-46.465-54.128z" fill="#dadbdc"/><path d="M385.56 179.245l2.105 11.662a7.155 7.155 0 0 0 8.313 5.771c3.018-.545 5.25-2.924 5.77-5.771l2.105-11.662c.911-5.053-2.445-9.887-7.497-10.797-5.052-.912-9.886 2.443-10.797 7.494a9.515 9.515 0 0 0 .001 3.303zm-34.6 66.872c0 13.959 11.155 25.291 25.036 25.621l.617-3.826v-47.449c-14.169-.001-25.653 11.486-25.653 25.654zm-19.974 86.955l-.22 15.275h32.869l2.465-15.275zm-174.33-61.303h-13.124l2.099 25.637h11.025c7.079 0 12.817-5.74 12.817-12.818 0-7.081-5.738-12.819-12.817-12.819zm-8.106 61.303l1.25 15.275h31.169l1.251-15.275z" fill="#333e48"/><path d="M151.336 144.525c0 20.301-16.457 36.758-36.757 36.758H48.231C21.593 181.283 0 159.687 0 133.05c0-16.596 8.385-31.232 21.149-39.91v-.002l.046-.031c.04-.027.079-.055.118-.08l44.754-30.523.003.004a39.304 39.304 0 0 1 22.237-6.852h40.278c12.568 0 22.755 10.188 22.755 22.756 0 .035-.005.066-.005.102v66.011h.001z" fill="#dadbdc"/><path d="M111.486 160.48c-14.746 0-27.507 8.469-33.709 20.803h36.802c9.27 0 17.733-3.441 24.199-9.104-6.869-7.203-16.552-11.699-27.292-11.699z" fill="#333e48"/><circle cx="92.038" cy="138.552" r="10.109" fill="#333e48"/><path d="M88.308 55.656c-.132 0-.261.014-.393.016 3.336 5.197 9.153 8.65 15.788 8.65 6.641 0 12.462-3.461 15.797-8.666H88.308zM30.691 86.63l-9.378 6.396c-.039.025-.079.053-.118.08l-.046.031v.002a48.421 48.421 0 0 0-16.881 20.08c3.413 3.547 8.197 5.76 13.507 5.76 10.362 0 18.763-8.4 18.763-18.764 0-5.35-2.252-10.167-5.847-13.585z" fill="#333e48"/><path d="M17.275 96.091C6.723 104.937 0 118.204 0 133.05c0 24.922 18.902 45.426 43.151 47.963a82.817 82.817 0 0 0 3.007-22.104c0-25.13-11.209-47.628-28.883-62.818z" fill="#ff9c9f"/><circle cx="17.775" cy="129.296" r="6.471" fill="#65513c"/><circle cx="78.819" cy="89.494" r="6.221" fill="#333e48"/><path d="M131.154 85.216l4.14 21.678c1.352 7.086-3.295 13.928-10.381 15.279-7.087 1.354-13.927-3.295-15.28-10.381a13.243 13.243 0 0 1 0-4.898l4.138-21.678c.917-4.799 5.551-7.947 10.352-7.033 3.661.701 6.363 3.584 7.031 7.033z" fill="#333e48"/><path d="M120.58 73.867a4.082 4.082 0 1 1 0-8.164 3.05 3.05 0 0 0 3.047-3.047 4.083 4.083 0 1 1 8.165 0c.001 6.181-5.03 11.211-11.212 11.211z" fill="#9c7f4d"/><path d="M267.973 97.775h-76.688a42.507 42.507 0 0 0-4.353 18.787c0 23.582 19.116 42.697 42.696 42.697 23.581 0 42.696-19.115 42.696-42.697a42.506 42.506 0 0 0-4.351-18.787z" fill="#333e48"/><circle cx="280.547" cy="196.794" r="12.812" fill="#333e48"/><path d="M322.461 98.027a60.013 60.013 0 0 0-5.355-.252h-36.561a22.256 22.256 0 0 0-1.448 7.859c0 12.348 10.011 22.359 22.359 22.359 12.349 0 22.359-10.012 22.359-22.359a22.267 22.267 0 0 0-1.354-7.607z" fill="#333e48"/><circle cx="178.548" cy="215.451" r="29.314" fill="#333e48"/><path d="M373.912 139.513a36.502 36.502 0 0 0-22.953-8.084c-20.25 0-36.665 16.416-36.665 36.666s16.415 36.664 36.665 36.664c9.989 0 19.04-3.998 25.653-10.479v-36.998c0-6.191-.947-12.158-2.7-17.769z" fill="#333e48"/></svg>