<svg xmlns="http://www.w3.org/2000/svg" viewBox="0 0 380.681 380.681"><path d="M93.563 342.613c15.387 15.387 40.329 15.387 55.715 0 15.385-15.385 15.385-40.33-.002-55.714l-79.982-79.982c-30.769 30.768-30.77 80.655 0 111.427l24.269 24.269z" fill="#333e48"/><path d="M128.461 280.534c-27.654 0-50.073 22.419-50.073 50.072a49.841 49.841 0 0 0 6.082 23.933h-5.28c-7.218 0-13.07 5.853-13.07 13.07v7.171a5.9 5.9 0 0 0 5.9 5.9h56.441c27.655 0 50.074-22.419 50.074-50.074 0-27.653-22.418-50.072-50.074-50.072z" fill="#2d3740"/><path d="M84.096 354.539H79.19c-7.218 0-13.07 5.853-13.07 13.07v7.171a5.9 5.9 0 0 0 5.9 5.9h25.408c.011-.333.025-.665.025-1.001 0-10.462-5.298-19.688-13.357-25.14z" fill="#dadbdc"/><path d="M272.124 280.534c27.654 0 50.073 22.419 50.073 50.072a49.841 49.841 0 0 1-6.082 23.933h5.28c7.218 0 13.07 5.853 13.07 13.07v7.171a5.9 5.9 0 0 1-5.9 5.9h-56.441c-27.655 0-50.074-22.419-50.074-50.074 0-27.653 22.419-50.072 50.074-50.072z" fill="#2d3740"/><path d="M316.489 354.539h4.906c7.218 0 13.07 5.853 13.07 13.07v7.171a5.9 5.9 0 0 1-5.9 5.9h-25.408c-.011-.333-.025-.665-.025-1.001.001-10.462 5.299-19.688 13.357-25.14z" fill="#dadbdc"/><path d="M154.358 380.681h91.714c20.379 0 37.057-16.676 37.057-37.057V225.345c0-45.792-37.122-82.913-82.915-82.913-45.792 0-82.914 37.121-82.914 82.913v118.279c.001 20.381 16.677 37.057 37.058 37.057z" fill="#333e48"/><path d="M200.293 227.912c-24.444 0-44.26 19.816-44.26 44.26v108.509h88.52V272.172c0-24.443-19.816-44.26-44.26-44.26z" fill="#fff"/><path d="M253.426 6.248c8.217-8.283 21.594-8.338 29.878-.121a21.063 21.063 0 0 1 6.249 14.913l.001.001.407 99.905-53.325.217c-15.857.064-28.764-12.737-28.828-28.594l-.164-40.165 45.782-46.156z" fill="#333e48"/><path d="M273.92 111.012l-.346-84.906a6.108 6.108 0 0 0-1.814-4.325c-1.567-1.554-3.392-1.78-4.34-1.776s-2.77.245-4.325 1.812L221.69 63.56l.138 33.953c.031 7.561 6.207 13.686 13.767 13.655l38.325-.156z" fill="#ff9c9f"/><path d="M146.196 6.685c-8.284-8.216-21.661-8.161-29.877.122a21.07 21.07 0 0 0-6.128 14.964l-.001.001.407 99.905 53.325-.218c15.857-.064 28.659-12.971 28.594-28.827l-.163-40.166-46.157-45.781z" fill="#333e48"/><path d="M126.556 111.612l-.346-84.905a6.113 6.113 0 0 1 1.778-4.341 6.1 6.1 0 0 1 4.325-1.811 6.108 6.108 0 0 1 4.34 1.776l41.745 41.406.138 33.952c.031 7.561-6.095 13.736-13.655 13.767l-38.325.156z" fill="#ff9c9f"/><path d="M289.961 120.946c-.202-49.531-40.517-89.52-90.047-89.317-49.358.2-89.236 40.239-89.313 89.534h-.004v20.903h.006c-.001.244-.007.486-.006.73.202 49.53 40.517 89.519 90.047 89.317 49.531-.201 89.519-40.518 89.317-90.048v-20.903h-.002l.002-.216z" fill="#333e48"/><path d="M269.456 108.006c-.094-23.063-18.866-41.682-41.929-41.588a41.563 41.563 0 0 0-17.456 3.904l-.032-7.908c-.022-5.522-4.518-9.982-10.041-9.959-5.523.021-9.982 4.518-9.959 10.04l.032 7.908a41.578 41.578 0 0 0-17.488-3.762c-23.062.094-41.682 18.866-41.588 41.929l.056 13.797c.042 10.313 3.828 19.732 10.054 26.992l39.248 45.891c4.649 6.105 12.003 10.035 20.268 10.001 8.265-.033 15.587-4.022 20.186-10.165l38.874-46.21h-.001c6.167-7.311 9.875-16.76 9.833-27.073l-.057-13.797z" fill="#fff"/><path d="M200.215 157.009a27.314 27.314 0 0 1-13 6.059v12.2c0 7.18 5.82 13 13 13s13-5.82 13-13v-12.2a27.31 27.31 0 0 1-13-6.059z" fill="#ff9c9f"/><circle cx="157.367" cy="108.767" r="7.805" fill="#0075c9"/><circle cx="243.086" cy="108.419" r="7.805" fill="#0075c9"/><path d="M208.908 133.779c-4.328 4.526-11.569 4.683-16.09.354l-5.045-4.83c-4.523-4.331-3.099-7.896 3.163-7.921l18.564-.076c6.262-.025 7.843 3.658 3.514 8.181l-4.106 4.292z" fill="#333e48"/><path d="M178.535 261.556c0-12.094-9.805-21.898-21.898-21.898-12.094 0-21.898 9.805-21.898 21.898v92.983h-18.152c-7.219 0-13.069 5.853-13.069 13.07v7.171c0 3.259 2.64 5.9 5.899 5.9h56.05c7.218 0 13.069-5.852 13.069-13.071V261.556h-.001z" fill="#2d3740"/><path d="M134.739 330.608v23.932h-18.152c-7.219 0-13.069 5.853-13.069 13.07v7.171c0 3.259 2.64 5.9 5.899 5.9h56.05c7.218 0 13.069-5.852 13.069-13.071v-37.002h-43.797z" fill="#dadbdc"/><path d="M222.05 261.556c0-12.094 9.805-21.898 21.898-21.898 12.094 0 21.898 9.805 21.898 21.898v92.983h18.152c7.219 0 13.069 5.853 13.069 13.07v7.171c0 3.259-2.64 5.9-5.899 5.9h-56.05c-7.218 0-13.069-5.852-13.069-13.071l.001-106.053z" fill="#2d3740"/><path d="M265.847 330.608v23.932h18.152c7.219 0 13.069 5.853 13.069 13.07v7.171c0 3.259-2.64 5.9-5.899 5.9h-56.05c-7.218 0-13.069-5.852-13.069-13.071v-37.002h43.797z" fill="#dadbdc"/></svg>