<svg xmlns="http://www.w3.org/2000/svg" viewBox="0 0 407.018 407.018"><path fill="#db8689" d="M103.233 252.273h59.272v79.465h-59.272z"/><path fill="#283038" d="M103.233 331.738v17.086h42.742l6.194-6.195 6.195 6.195h4.142v-17.086z"/><path fill="#db8689" d="M237.722 252.273h59.271v79.465h-59.271z"/><path fill="#283038" d="M237.722 331.738v17.086h42.74l6.195-6.195 6.196 6.195h4.14v-17.086z"/><path d="M40.081 173.089H22.496C10.092 173.089 0 162.996 0 150.591s10.092-22.497 22.496-22.497a6.274 6.274 0 0 1 0 12.548c-5.486 0-9.948 4.463-9.948 9.949s4.462 9.949 9.948 9.949h17.585a6.274 6.274 0 0 1 0 12.549z" fill="#ff9c9f"/><path d="M40.081 173.089c-12.404 0-22.496-10.092-22.496-22.497s10.092-22.497 22.496-22.497 22.498 10.092 22.498 22.497-10.094 22.497-22.498 22.497zm0-32.447c-5.486 0-9.948 4.463-9.948 9.949s4.462 9.949 9.948 9.949 9.95-4.463 9.95-9.949c0-5.485-4.464-9.949-9.95-9.949z" fill="#db8689"/><path d="M305.202 88.371c12.858-20.644 46.157-37.577 67.082-25.004l-28.834 47.986-38.248-22.982z" fill="#ff9c9f"/><path d="M375.985 122.319c8.003-18.688 8.927-46.177-3.701-58.951-17.207-5.154-41.046 8.569-53.79 24.406-.007.015-.199.307-.284.445a6.829 6.829 0 0 0 2.336 9.37l45.811 27.527a6.83 6.83 0 0 0 9.37-2.337c.083-.139.251-.446.258-.46z" fill="#ffb6b6"/><path fill="#333e48" d="M62.016 331.738v17.086h42.741l6.194-6.195 6.195 6.195h4.142v-17.086z"/><path d="M299.813 75.01c-32.706 0-61.548 16.548-78.611 41.728h-90.793c-52.037 0-94.22 42.184-94.22 94.22 0 25.105 9.819 47.915 25.827 64.802v55.978h59.273v-27.001c3.001.288 6.042.441 9.12.441h66.093v26.56h59.273v-31.825c18.874-6.602 35.006-19.038 46.234-35.149 51.392-1.168 92.693-43.191 92.693-94.863 0-52.407-42.483-94.891-94.889-94.891z" fill="#ff9c9f"/><path d="M379.712 200.138h-45.011c-15.079 0-27.305-12.226-27.305-27.306 0-15.081 12.226-27.306 27.305-27.306h45.011v54.612z" fill="#db8689"/><path d="M379.712 145.526c15.08 0 27.306 12.225 27.306 27.306s-12.226 27.306-27.306 27.306h-27.314c-15.081 0-27.307-12.226-27.307-27.306 0-15.081 12.226-27.306 27.307-27.306h27.314z" fill="#ffb6b6"/><path d="M347.6 165.229a6.796 6.796 0 0 1 13.591 0v15.206a6.795 6.795 0 0 1-13.591 0v-15.206zm43.667 0a6.796 6.796 0 0 0-13.59 0v15.206a6.796 6.796 0 0 0 13.59 0v-15.206z" fill="#db8689"/><circle cx="311.256" cy="128.136" r="7.58" fill="#333e48"/><circle cx="369.916" cy="128.136" r="7.579" fill="#333e48"/><path fill="#333e48" d="M196.501 331.738v17.086h42.742l6.195-6.195 6.194 6.195h4.142v-17.086z"/><circle cx="78.775" cy="182.019" r="12.875" fill="#db8689"/><circle cx="121.287" cy="158.434" r="12.875" fill="#db8689"/><circle cx="113.525" cy="193.928" r="7.664" fill="#db8689"/><path d="M225.735 129.635c-11.449-21.458-9.464-58.762 11.887-70.598l27.141 48.964-39.028 21.634z" fill="#ff9c9f"/><path d="M290.527 85.308c-12.184-16.272-35.528-30.818-52.904-26.269-13.068 12.326-13.102 39.83-5.759 58.786.01.015.166.328.243.47a6.829 6.829 0 0 0 9.282 2.663l46.746-25.911a6.831 6.831 0 0 0 2.661-9.284c-.078-.143-.261-.441-.269-.455z" fill="#ffb6b6"/></svg>